<svg xmlns="http://www.w3.org/2000/svg" xmlns:xlink="http://www.w3.org/1999/xlink" xmlns:lucid="lucid" width="1538" height="1299"><g transform="translate(-100 -40)" lucid:page-tab-id="0_0"><path d="M710 132c0-6.63 5.37-12 12-12h316c6.63 0 12 5.37 12 12v96c0 6.63-5.37 12-12 12H722c-6.63 0-12-5.37-12-12z" stroke="#000" stroke-width="2" fill="#e5e5e5"/><use xlink:href="#a" transform="matrix(1,0,0,1,715,125) translate(40.4443359375 35.126953125)"/><use xlink:href="#b" transform="matrix(1,0,0,1,715,125) translate(62.2021484375 35.126953125)"/><use xlink:href="#c" transform="matrix(1,0,0,1,715,125) translate(121.5380859375 35.126953125)"/><use xlink:href="#d" transform="matrix(1,0,0,1,715,125) translate(163.3349609375 35.126953125)"/><use xlink:href="#e" transform="matrix(1,0,0,1,715,125) translate(16.7236328125 62.36328125)"/><use xlink:href="#f" transform="matrix(1,0,0,1,715,125) translate(204.0185546875 62.36328125)"/><use xlink:href="#g" transform="matrix(1,0,0,1,715,125) translate(229.3408203125 62.36328125)"/><use xlink:href="#h" transform="matrix(1,0,0,1,715,125) translate(62.744140625 89.599609375)"/><use xlink:href="#i" transform="matrix(1,0,0,1,715,125) translate(89.404296875 89.599609375)"/><use xlink:href="#j" transform="matrix(1,0,0,1,715,125) translate(185.791015625 89.599609375)"/><path d="M710 712c0-6.63 5.37-12 12-12h316c6.63 0 12 5.37 12 12v96c0 6.63-5.37 12-12 12H722c-6.63 0-12-5.37-12-12z" stroke="#000" stroke-width="2" fill="#e5e5e5"/><use xlink:href="#k" transform="matrix(1,0,0,1,715,705) translate(17.978515625 48.876953125)"/><use xlink:href="#l" transform="matrix(1,0,0,1,715,705) translate(76.416015625 48.876953125)"/><use xlink:href="#m" transform="matrix(1,0,0,1,715,705) translate(97.65625 48.876953125)"/><use xlink:href="#n" transform="matrix(1,0,0,1,715,705) translate(136.494140625 48.876953125)"/><use xlink:href="#f" transform="matrix(1,0,0,1,715,705) translate(195.5078125 48.876953125)"/><use xlink:href="#o" transform="matrix(1,0,0,1,715,705) translate(220.830078125 48.876953125)"/><use xlink:href="#p" transform="matrix(1,0,0,1,715,705) translate(100.7568359375 76.11328125)"/><path d="M340 412c0-6.63 5.37-12 12-12h256c6.63 0 12 5.37 12 12v74.82c0 6.63-5.37 12-12 12H352c-6.63 0-12-5.37-12-12z" stroke="#000" stroke-width="2" fill="#c7e8ac"/><use xlink:href="#q" transform="matrix(1,0,0,1,345,404.99999999999994) translate(27.3583984375 51.970703125)"/><use xlink:href="#r" transform="matrix(1,0,0,1,345,404.99999999999994) translate(61.1962890625 51.970703125)"/><use xlink:href="#s" transform="matrix(1,0,0,1,345,404.99999999999994) translate(160.0439453125 51.970703125)"/><path d="M740 412c0-6.63 5.37-12 12-12h256c6.63 0 12 5.37 12 12v74.82c0 6.63-5.37 12-12 12H752c-6.63 0-12-5.37-12-12z" stroke="#000" stroke-width="2" fill="#ffbbb1"/><use xlink:href="#t" transform="matrix(1,0,0,1,745,404.99999999999994) translate(44.27734375 51.970703125)"/><use xlink:href="#u" transform="matrix(1,0,0,1,745,404.99999999999994) translate(143.125 51.970703125)"/><path d="M1140 412c0-6.63 5.37-12 12-12h256c6.63 0 12 5.37 12 12v74.82c0 6.63-5.37 12-12 12h-256c-6.63 0-12-5.37-12-12z" stroke="#000" stroke-width="2" fill="#ffdba9"/><use xlink:href="#v" transform="matrix(1,0,0,1,1145,404.99999999999994) translate(62.1630859375 51.970703125)"/><path d="M880 242v138.5" stroke="#000" stroke-width="2" fill="none"/><path d="M881 242.03h-2V241h2z"/><path d="M880 395.76l-4.64-14.26h9.28z" stroke="#000" stroke-width="2"/><path d="M879.98 242l-.06.94-.1.95-.14.93-.18.95-.22.94-.27.95-.3.96-.36.97-.42 1-.47 1-.54 1.03-.6 1.06-.7 1.1-.8 1.12-.9 1.18-1 1.24-1.18 1.3-1.35 1.38-1.56 1.46-1.8 1.56-2.13 1.68-2.5 1.83-3.02 2-3.64 2.2-4.46 2.45-5.6 2.77-7.15 3.18-9.45 3.72-12.97 4.5-19.03 5.72-31.82 8.08-202.28 43.73-19.03 5.73-12.97 4.5-9.44 3.72-7.15 3.18-5.6 2.77-4.46 2.46-3.65 2.2-3 2-2.52 1.82-2.13 1.68-1.8 1.56-1.57 1.46-1.35 1.38-1.17 1.3-.4.5" stroke="#000" stroke-width="2" fill="none"/><path d="M880.98 242.05l-2-.04.02-1h2z"/><path d="M481.2 396l.96-14.98 8.6 3.43z" stroke="#000" stroke-width="2"/><path d="M880.02 242l.06.94.1.95.14.93.18.95.22.94.27.95.3.96.36.97.42 1 .47 1 .54 1.03.6 1.06.7 1.1.8 1.12.9 1.18 1 1.24 1.18 1.3 1.35 1.38 1.56 1.46 1.8 1.56 2.13 1.68 2.5 1.83 3.02 2 3.64 2.2 4.46 2.45 5.6 2.77 7.15 3.18 9.45 3.72 12.97 4.5 19.03 5.72 31.82 8.08 202.28 43.73 19.03 5.73 12.97 4.5 9.44 3.72 7.15 3.18 5.6 2.77 4.46 2.46 3.65 2.2 3 2 2.52 1.82 2.13 1.68 1.8 1.56 1.57 1.46 1.35 1.38 1.17 1.3.4.5" stroke="#000" stroke-width="2" fill="none"/><path d="M881.02 242l-2 .05L879 241h2z"/><path d="M1278.8 396l-9.57-11.55 8.6-3.43z" stroke="#000" stroke-width="2"/><path d="M880 500.82V601.5" stroke="#000" stroke-width="2" fill="none"/><path d="M881 500.85h-2v-1.03h2z"/><path d="M880 616.76l-4.64-14.26h9.28z" stroke="#000" stroke-width="2"/><path d="M879.98 822v.48l-.1 1.44-.15 1.4-.2 1.4-.27 1.36-.3 1.35-.4 1.35-.43 1.35-.5 1.35-.57 1.35-.64 1.37-.73 1.4-.83 1.4-.92 1.46-1.03 1.48-1.17 1.54-1.32 1.6-1.5 1.65-1.7 1.74-1.95 1.84-2.27 1.96-2.63 2.1-3.12 2.25-3.73 2.5-4.56 2.75-5.7 3.13-7.44 3.68-10.3 4.58-16.86 6.62-74.17 26.9-10.32 4.58-7.43 3.68-5.7 3.13-4.57 2.76-3.73 2.5-3.12 2.25-2.64 2.1-2.28 1.94-1.95 1.83-1.7 1.74-1.5 1.66-1.32 1.6-1.17 1.53-1.03 1.48-.92 1.45-.23.4" stroke="#000" stroke-width="2" fill="none"/><path d="M880.98 822.05l-2-.04.02-1h2z"/><path d="M680.87 955.88l-.65-14.98 8.94 2.48z" stroke="#000" stroke-width="2"/><path d="M880.02 822v.48l.1 1.44.15 1.4.2 1.4.27 1.36.3 1.35.4 1.35.43 1.35.5 1.35.57 1.35.64 1.37.73 1.4.83 1.4.92 1.46 1.03 1.48 1.17 1.54 1.32 1.6 1.5 1.65 1.7 1.74 1.95 1.84 2.27 1.96 2.63 2.1 3.12 2.25 3.73 2.5 4.56 2.75 5.7 3.13 7.44 3.68 10.3 4.58 16.86 6.62 74.17 26.9 10.32 4.58 7.43 3.68 5.7 3.13 4.57 2.76 3.73 2.5 3.12 2.25 2.64 2.1 2.28 1.94 1.95 1.83 1.7 1.74 1.5 1.66 1.32 1.6 1.17 1.53 1.03 1.48.92 1.45.23.4" stroke="#000" stroke-width="2" fill="none"/><path d="M881.02 822l-2 .05L879 821h2z"/><path d="M1079.13 955.88l-8.3-12.5 8.95-2.48z" stroke="#000" stroke-width="2"/><path d="M140 1211.53c0-6.63 5.37-12 12-12h156.56c6.63 0 12 5.37 12 12v74.82c0 6.63-5.37 12-12 12H152c-6.63 0-12-5.37-12-12z" stroke="#000" stroke-width="2" fill="#ffbbb1"/><use xlink:href="#w" transform="matrix(1,0,0,1,145,1204.5294117647063) translate(34.0009765625 24.158203125)"/><use xlink:href="#x" transform="matrix(1,0,0,1,145,1204.5294117647063) translate(38.673828125 51.39453125)"/><use xlink:href="#y" transform="matrix(1,0,0,1,145,1204.5294117647063) translate(16.7744140625 78.630859375)"/><use xlink:href="#z" transform="matrix(1,0,0,1,145,1204.5294117647063) translate(104.5673828125 78.630859375)"/><path d="M339.56 1211.18c0-6.63 5.37-12 12-12h156.56c6.63 0 12 5.37 12 12V1286c0 6.63-5.37 12-12 12H351.56c-6.63 0-12-5.37-12-12z" stroke="#000" stroke-width="2" fill="#ff8f80"/><use xlink:href="#A" transform="matrix(1,0,0,1,344.5607476635514,1204.1764705882356) translate(14.2158203125 24.158203125)"/><use xlink:href="#B" transform="matrix(1,0,0,1,344.5607476635514,1204.1764705882356) translate(63.1318359375 24.158203125)"/><use xlink:href="#C" transform="matrix(1,0,0,1,344.5607476635514,1204.1764705882356) translate(25.7685546875 51.39453125)"/><use xlink:href="#D" transform="matrix(1,0,0,1,344.5607476635514,1204.1764705882356) translate(59.611328125 78.630859375)"/><path d="M539.12 1211.7c0-6.62 5.37-12 12-12h156.56c6.63 0 12 5.38 12 12v74.83c0 6.63-5.37 12-12 12H551.12c-6.63 0-12-5.37-12-12z" stroke="#000" stroke-width="2" fill="#ffdba9"/><use xlink:href="#v" transform="matrix(1,0,0,1,544.1214953271028,1204.7058823529417) translate(12.6630859375 51.970703125)"/><path d="M818.36 1211.35c0-6.62 5.38-12 12-12h156.57c6.62 0 12 5.38 12 12v74.83c0 6.62-5.38 12-12 12H830.36c-6.62 0-12-5.38-12-12z" stroke="#000" stroke-width="2" fill="#ffbbb1"/><use xlink:href="#E" transform="matrix(1,0,0,1,823.3644859813086,1204.352941176471) translate(63.6396484375 51.970703125)"/><path d="M1017.93 1211.88c0-6.63 5.37-12 12-12h156.56c6.6 0 12 5.37 12 12v74.83c0 6.63-5.4 12-12 12h-156.57c-6.63 0-12-5.37-12-12z" stroke="#000" stroke-width="2" fill="#ff8f80"/><use xlink:href="#F" transform="matrix(1,0,0,1,1022.9252336448599,1204.882352941177) translate(37.013671875 51.970703125)"/><path d="M1217.5 1211c0-6.63 5.36-12 12-12h156.55c6.62 0 12 5.37 12 12v74.82c0 6.63-5.38 12-12 12H1229.5c-6.64 0-12-5.37-12-12z" stroke="#000" stroke-width="2" fill="#c92d39"/><use xlink:href="#G" transform="matrix(1,0,0,1,1222.4859813084113,1204.0000000000002) translate(52.4384765625 51.970703125)"/><path d="M1417.05 1210.82c0-6.62 5.37-12 12-12h156.56c6.63 0 12 5.38 12 12v74.83c0 6.62-5.37 12-12 12h-156.55c-6.63 0-12-5.38-12-12z" stroke="#000" stroke-width="2" fill="#ffdba9"/><use xlink:href="#v" transform="matrix(1,0,0,1,1422.0467289719627,1203.8235294117649) translate(12.6630859375 51.970703125)"/><path d="M679.98 1060.83l-.1 4.66-.32 5.1-.5 4.7-.62 4.3-.77 4.05-.9 3.82-1.02 3.66-1.15 3.54-1.3 3.47-1.45 3.48-1.67 3.54-1.95 3.7-2.36 4.1-3.15 4.95-6.58 9.4-9.46 13.32-3.15 4.94-2.36 4.1-1.95 3.7-1.66 3.55-1.46 3.5-1.3 3.46-1.15 3.54-1.02 3.66-.9 3.82-.76 4.04-.2 1.35" stroke="#000" stroke-width="2" fill="none"/><path d="M680.98 1060.87l-2-.04.02-1h2z"/><path d="M629.64 1195.48l-3.57-14.57 9.25.7z" stroke="#000" stroke-width="2"/><path d="M679.98 1060.83v.18l-.08 1.18-.12 1.15-.17 1.13-.2 1.13-.26 1.1-.32 1.13-.36 1.12-.42 1.13-.48 1.15-.55 1.16-.6 1.17-.7 1.2-.8 1.25-.88 1.27-1 1.32-1.15 1.38-1.3 1.44-1.48 1.5-1.72 1.6-1.98 1.72-2.3 1.83-2.73 1.96-3.24 2.16-3.93 2.37-4.84 2.65-6.1 3.03-7.98 3.53-10.96 4.34-16.65 5.76-38.94 11.55-64.56 18.65-16.65 5.76-10.96 4.33-7.97 3.52-6.1 3.03-4.86 2.66-3.92 2.38-3.25 2.16-2.72 1.97-2.3 1.84-2 1.7-1.7 1.6-1.48 1.52-1.3 1.44-1.14 1.38-1 1.33-.17.24" stroke="#000" stroke-width="2" fill="none"/><path d="M680.98 1060.87l-2-.04.02-1h2z"/><path d="M430.88 1195.1l.17-15 8.78 2.98z" stroke="#000" stroke-width="2"/><path d="M679.97 1060.82l-.03.34-.07.65-.1.67-.12.66-.15.66-.2.66-.2.67-.26.7-.3.68-.33.73-.38.74-.44.75-.5.8-.57.8-.64.86-.74.9-.85.95-1 1-1.13 1.08-1.34 1.16-1.57 1.25-1.87 1.36-2.24 1.5-2.73 1.64-3.37 1.84-4.2 2.08-5.4 2.4-7.08 2.8-9.63 3.33-13.7 4.12-21 5.35-36.94 7.76-248.42 42.75-21 5.35-13.7 4.12-9.63 3.34-7.08 2.8-5.4 2.4-4.2 2.07-3.36 1.86-2.74 1.64-2.24 1.5-1.87 1.35-1.57 1.24-.82.7" stroke="#000" stroke-width="2" fill="none"/><path d="M680.98 1060.87l-2-.04.02-1h2z"/><path d="M231.83 1195.7l2.76-14.75 8.13 4.43z" stroke="#000" stroke-width="2"/><path d="M1079.98 1060.83l-.02.73-.1 1.68-.17 1.64-.25 1.6-.3 1.58-.37 1.55-.43 1.55-.5 1.54-.56 1.52-.66 1.53-.73 1.55-.8 1.56-.92 1.58-1.03 1.62-1.15 1.66-1.3 1.7-1.46 1.77-1.66 1.83-1.88 1.93-2.17 2.03-2.5 2.16-2.95 2.32-3.5 2.54-4.2 2.8-5.26 3.17-6.8 3.72-9.5 4.7-16.66 7.37-52.32 21.95-9.5 4.7-6.8 3.73-5.26 3.18-4.23 2.8-3.5 2.53-2.92 2.32-2.5 2.16-2.18 2.04-1.9 1.93-1.65 1.83-1.46 1.77-1.3 1.7-1.15 1.66-1.03 1.63-.92 1.6-.63 1.2" stroke="#000" stroke-width="2" fill="none"/><path d="M1080.98 1060.87l-2-.04.02-1h2z"/><path d="M909.4 1195.2l-1.18-14.95 9 2.16z" stroke="#000" stroke-width="2"/><path d="M1080.02 1060.83l.18 8.78.5 8.23.76 7.12.93 6.36 1.1 5.87 1.32 5.6 1.58 5.64 2 6.2 3.38 9 8 20.5 2.03 6.2 1.58 5.63 1.3 5.6 1.13 5.86.95 6.35.7 6.65" stroke="#000" stroke-width="2" fill="none"/><path d="M1081.02 1060.83l-2 .04-.02-1.05h2z"/><path d="M1108.07 1195.65l-5.22-14.06 9.27-.4z" stroke="#000" stroke-width="2"/><path d="M1080.02 1060.83v.3l.1 1.27.12 1.25.18 1.23.23 1.23.3 1.22.33 1.2.4 1.22.44 1.22.52 1.23.6 1.24.65 1.26.74 1.3.84 1.32.94 1.36 1.07 1.4 1.2 1.47 1.4 1.53 1.56 1.6 1.8 1.7 2.1 1.8 2.44 1.95 2.88 2.08 3.44 2.3 4.17 2.5 5.14 2.84 6.57 3.25 8.7 3.86 12.4 4.9 21.33 7.35 83.82 26.77 12.4 4.9 8.7 3.86 6.57 3.25 5.16 2.83 4.17 2.53 3.43 2.28 2.88 2.1 2.44 1.93 2.1 1.8 1.8 1.7 1.58 1.6 1.38 1.54 1.2 1.46 1.08 1.4.95 1.38.04.1" stroke="#000" stroke-width="2" fill="none"/><path d="M1081.02 1060.83l-2 .04-.02-1.05h2z"/><path d="M1306.8 1194.9l-8.66-12.23 8.85-2.76z" stroke="#000" stroke-width="2"/><path d="M1080.03 1060.82l.03.4.07.67.1.68.13.68.16.7.2.68.22.7.27.7.3.73.36.74.4.77.45.8.53.8.6.85.66.88.75.93.88.97 1.02 1.04 1.18 1.1 1.37 1.2 1.62 1.27 1.92 1.4 2.3 1.53 2.8 1.7 3.43 1.88 4.32 2.14 5.5 2.45 7.25 2.85 9.87 3.42 14.1 4.24 21.72 5.54 39.43 8.28 218.82 38.88 21.72 5.54 14.1 4.23 9.85 3.42 7.25 2.86 5.52 2.45 4.3 2.14 3.45 1.9 2.8 1.68 2.3 1.53 1.9 1.4 1.62 1.27 1.33 1.14" stroke="#000" stroke-width="2" fill="none"/><path d="M1081.02 1060.83l-2 .04-.02-1.05h2z"/><path d="M1505.82 1194.96l-10.77-10.45 8.2-4.32z" stroke="#000" stroke-width="2"/><path d="M710 52c0-6.63 5.37-12 12-12h316c6.63 0 12 5.37 12 12v56c0 6.63-5.37 12-12 12H722c-6.63 0-12-5.37-12-12z" stroke="#000" stroke-opacity="0" stroke-width="2" fill-opacity="0"/><g><use xlink:href="#H" transform="matrix(1,0,0,1,715,45) translate(76.22395833333334 46.002604166666664)"/><use xlink:href="#I" transform="matrix(1,0,0,1,715,45) translate(221.328125 46.002604166666664)"/></g><path d="M710 632c0-6.63 5.37-12 12-12h316c6.63 0 12 5.37 12 12v56c0 6.63-5.37 12-12 12H722c-6.63 0-12-5.37-12-12z" stroke="#000" stroke-opacity="0" stroke-width="2" fill-opacity="0"/><g><use xlink:href="#H" transform="matrix(1,0,0,1,715,625) translate(76.22395833333334 46.002604166666664)"/><use xlink:href="#J" transform="matrix(1,0,0,1,715,625) translate(221.328125 46.002604166666664)"/></g><path d="M540 972c0-6.63 5.37-12 12-12h256c6.63 0 12 5.37 12 12v74.82c0 6.63-5.37 12-12 12H552c-6.63 0-12-5.37-12-12z" stroke="#000" stroke-width="2" fill="#ffbbb1"/><g><use xlink:href="#t" transform="matrix(1,0,0,1,545,965.0000000000001) translate(25.8447265625 38.064453125)"/><use xlink:href="#K" transform="matrix(1,0,0,1,545,965.0000000000001) translate(124.6923828125 38.064453125)"/><use xlink:href="#L" transform="matrix(1,0,0,1,545,965.0000000000001) translate(34.4482421875 65.30078125)"/><use xlink:href="#M" transform="matrix(1,0,0,1,545,965.0000000000001) translate(68.2861328125 65.30078125)"/><use xlink:href="#N" transform="matrix(1,0,0,1,545,965.0000000000001) translate(171.5673828125 65.30078125)"/></g><path d="M940 972c0-6.63 5.37-12 12-12h256c6.63 0 12 5.37 12 12v74.82c0 6.63-5.37 12-12 12H952c-6.63 0-12-5.37-12-12z" stroke="#000" stroke-width="2" fill="#ff8f80"/><g><use xlink:href="#O" transform="matrix(1,0,0,1,945,965.0000000000001) translate(85.95703125 51.970703125)"/></g><defs><path fill="#3b3c40" d="M184 0v-1462h310V0H184" id="P"/><path fill="#3b3c40" d="M836-831c-99-39-182-77-306-82-139-6-173 83-92 144 51 39 327 139 383 188 71 62 119 126 119 249C940-74 747 21 463 20 305 20 202 0 94-45v-252c93 45 253 94 379 94 111 0 166-32 166-96 0-68-41-76-98-109-79-46-276-119-333-167-74-61-116-125-116-252 0-368 555-367 836-224" id="Q"/><g id="a"><use transform="matrix(0.009765625,0,0,0.009765625,0,0)" xlink:href="#P"/><use transform="matrix(0.009765625,0,0,0.009765625,6.62109375,0)" xlink:href="#Q"/></g><path fill="#3b3c40" d="M498-350c-2 85 52 126 133 127 53 0 117-12 192-35v227C747 3 654 20 543 20c-247 0-350-124-350-370v-539H47v-129l168-102 88-236h195v238h313v229H498v539" id="R"/><path fill="#3b3c40" d="M791-1139c262-1 402 148 401 410V0H887v-653c0-161-60-242-180-242-201 0-242 142-242 369V0H160v-1556h305c-1 210 6 368-14 581h16c68-109 176-164 324-164" id="S"/><path fill="#3b3c40" d="M836-686c0-141-77-236-213-236-140 0-206 98-215 236h428zm223 627C946-4 838 19 666 20 308 22 92-191 92-551c0-356 187-588 529-588 314 0 504 195 501 508v148H401c5 169 104 277 279 276 158-2 261-33 379-88v236" id="T"/><path fill="#3b3c40" d="M451-930c71-134 228-244 436-200l-23 286c-220-45-399 61-399 275V0H160v-1118h231l45 188h15" id="U"/><g id="b"><use transform="matrix(0.009765625,0,0,0.009765625,0,0)" xlink:href="#R"/><use transform="matrix(0.009765625,0,0,0.009765625,8.681640625,0)" xlink:href="#S"/><use transform="matrix(0.009765625,0,0,0.009765625,21.826171875,0)" xlink:href="#T"/><use transform="matrix(0.009765625,0,0,0.009765625,33.642578125,0)" xlink:href="#U"/><use transform="matrix(0.009765625,0,0,0.009765625,42.32421875,0)" xlink:href="#T"/></g><path fill="#3b3c40" d="M618-1141c286 0 465 117 465 396V0H870l-59-152h-8C704-33 632 18 432 20 216 22 86-113 86-334c0-119 44-202 124-262 109-82 356-99 570-100 11-142-39-219-174-219-89 0-194 27-315 81l-101-206c129-67 271-101 428-101zm-71 938c137 0 235-88 233-223v-92c-190 3-382 4-381 186 0 86 49 129 148 129" id="V"/><path fill="#3b3c40" d="M795-1139c261-1 398 148 397 410V0H887v-653c-1-148-42-242-180-242-202 0-242 139-242 369V0H160v-1118h233l41 143h17c62-102 185-163 344-164" id="W"/><path fill="#3b3c40" d="M0-1118h334l211 629c18 55 30 119 37 194h6c7-69 23-133 43-194l207-629h327L692 143C611 389 392 544 70 475V233c95 21 196 18 262-37 50-42 89-123 112-204" id="X"/><g id="c"><use transform="matrix(0.009765625,0,0,0.009765625,0,0)" xlink:href="#V"/><use transform="matrix(0.009765625,0,0,0.009765625,12.080078125,0)" xlink:href="#W"/><use transform="matrix(0.009765625,0,0,0.009765625,25.224609375,0)" xlink:href="#X"/></g><path fill="#3b3c40" d="M92-557c0-327 132-582 430-582 141 0 248 55 322 164h10c-38-188-18-371-23-581h306V0H903l-59-145h-13C762-35 656 20 514 20 222 20 92-237 92-557zm309 4c0 190 54 330 220 330 191 0 231-123 231-332 0-214-44-336-236-336-161 0-215 151-215 338" id="Y"/><path fill="#3b3c40" d="M633-893c-183 0-230 133-230 332s48 336 232 336c183 0 229-137 229-336s-47-332-231-332zm4-246c347 5 535 225 539 578S978 25 631 20C283 15 96-208 92-561c-4-355 196-583 545-578" id="Z"/><path fill="#3b3c40" d="M954-63C853 0 774 20 614 20 266 20 92-171 92-553c0-369 188-586 549-586 129 0 245 25 348 76l-90 236c-84-31-156-66-258-66-159 0-238 113-238 338 0 219 79 328 238 328 137 0 223-38 313-97v261" id="aa"/><path fill="#3b3c40" d="M639-223c202 0 242-139 242-369v-526h305V0H952l-41-143h-16C834-43 709 20 551 20c-263 0-397-147-397-409v-729h305v653c1 148 42 242 180 242" id="ab"/><path fill="#3b3c40" d="M1384-895c-176 0-222 133-223 334V0H856v-653c-1-144-37-242-168-242-78 0-135 29-170 86s-53 152-53 283V0H160v-1118h233l41 143h17c56-98 174-164 325-164 167 0 281 55 340 164h27c55-99 179-165 330-164 265 2 385 133 385 410V0h-306v-653c-1-144-37-242-168-242" id="ac"/><g id="d"><use transform="matrix(0.009765625,0,0,0.009765625,0,0)" xlink:href="#Y"/><use transform="matrix(0.009765625,0,0,0.009765625,12.65625,0)" xlink:href="#Z"/><use transform="matrix(0.009765625,0,0,0.009765625,25.0390625,0)" xlink:href="#aa"/><use transform="matrix(0.009765625,0,0,0.009765625,35.322265625,0)" xlink:href="#ab"/><use transform="matrix(0.009765625,0,0,0.009765625,48.466796875,0)" xlink:href="#ac"/><use transform="matrix(0.009765625,0,0,0.009765625,68.10546875,0)" xlink:href="#T"/><use transform="matrix(0.009765625,0,0,0.009765625,79.921875,0)" xlink:href="#W"/><use transform="matrix(0.009765625,0,0,0.009765625,93.06640625,0)" xlink:href="#R"/><use transform="matrix(0.009765625,0,0,0.009765625,101.748046875,0)" xlink:href="#T"/><use transform="matrix(0.009765625,0,0,0.009765625,113.564453125,0)" xlink:href="#Y"/></g><path fill="#3b3c40" d="M782-1139c293 0 422 256 422 578 0 230-70 418-202 512-65 46-141 69-228 69-131 0-234-48-309-143h-16c32 222 9 383 16 615H160v-1610h248l43 145h14c71-111 177-166 317-166zm111 574c0-190-40-330-209-330-184 0-221 128-219 332 2 209 40 336 223 336 137 0 205-113 205-338" id="ad"/><path fill="#3b3c40" d="M479-1407c-1 99-61 150-166 150-111 0-166-50-166-150 0-99 55-149 166-149s166 50 166 149zM465 0H160v-1118h305V0" id="ae"/><path fill="#3b3c40" d="M836-1462L291 0H14l545-1462h277" id="af"/><g id="e"><use transform="matrix(0.009765625,0,0,0.009765625,0,0)" xlink:href="#Q"/><use transform="matrix(0.009765625,0,0,0.009765625,9.94140625,0)" xlink:href="#ab"/><use transform="matrix(0.009765625,0,0,0.009765625,23.0859375,0)" xlink:href="#Q"/><use transform="matrix(0.009765625,0,0,0.009765625,33.02734375,0)" xlink:href="#ad"/><use transform="matrix(0.009765625,0,0,0.009765625,45.68359375,0)" xlink:href="#ae"/><use transform="matrix(0.009765625,0,0,0.009765625,51.787109375,0)" xlink:href="#aa"/><use transform="matrix(0.009765625,0,0,0.009765625,62.0703125,0)" xlink:href="#ae"/><use transform="matrix(0.009765625,0,0,0.009765625,68.173828125,0)" xlink:href="#Z"/><use transform="matrix(0.009765625,0,0,0.009765625,80.556640625,0)" xlink:href="#W"/><use transform="matrix(0.009765625,0,0,0.009765625,93.701171875,0)" xlink:href="#af"/><use transform="matrix(0.009765625,0,0,0.009765625,101.962890625,0)" xlink:href="#aa"/><use transform="matrix(0.009765625,0,0,0.009765625,112.24609375,0)" xlink:href="#Z"/><use transform="matrix(0.009765625,0,0,0.009765625,124.62890625,0)" xlink:href="#W"/><use transform="matrix(0.009765625,0,0,0.009765625,137.7734375,0)" xlink:href="#aa"/><use transform="matrix(0.009765625,0,0,0.009765625,148.056640625,0)" xlink:href="#T"/><use transform="matrix(0.009765625,0,0,0.009765625,159.873046875,0)" xlink:href="#U"/><use transform="matrix(0.009765625,0,0,0.009765625,168.955078125,0)" xlink:href="#W"/></g><path fill="#3b3c40" d="M637-1325c-111 0-131 91-123 207h264v229H514V0H209v-889H41v-147l168-82c-18-311 94-449 395-449 105 0 199 16 281 47l-78 224c-61-19-118-29-170-29" id="ag"/><g id="f"><use transform="matrix(0.009765625,0,0,0.009765625,0,0)" xlink:href="#Z"/><use transform="matrix(0.009765625,0,0,0.009765625,12.3828125,0)" xlink:href="#ag"/></g><g id="g"><use transform="matrix(0.009765625,0,0,0.009765625,0,0)" xlink:href="#ac"/><use transform="matrix(0.009765625,0,0,0.009765625,19.638671875,0)" xlink:href="#T"/><use transform="matrix(0.009765625,0,0,0.009765625,31.455078125,0)" xlink:href="#ac"/><use transform="matrix(0.009765625,0,0,0.009765625,51.09375,0)" xlink:href="#Z"/><use transform="matrix(0.009765625,0,0,0.009765625,63.4765625,0)" xlink:href="#U"/><use transform="matrix(0.009765625,0,0,0.009765625,72.55859375,0)" xlink:href="#X"/></g><g id="h"><use transform="matrix(0.009765625,0,0,0.009765625,0,0)" xlink:href="#Z"/><use transform="matrix(0.009765625,0,0,0.009765625,12.3828125,0)" xlink:href="#U"/></g><path fill="#3b3c40" d="M549-1139c43 0 163 15 194 21h390v155l-175 45c32 50 48 106 48 168 2 289-261 415-574 373-89 78-53 146 121 146h190c229-1 375 93 377 311 0 131-55 232-164 304S691 492 487 492c-156 0-275-28-357-82S6 280 6 182C6 26 113-51 254-84c-55-22-119-89-117-162 3-107 68-140 144-190C169-483 89-600 90-756c1-259 185-383 459-383zM467 14c-100-2-199 51-197 144 3 184 368 146 487 90 62-30 93-71 93-123 0-42-19-70-55-87-64-30-222-23-328-24zm82-569c118 0 165-80 166-197 0-135-55-202-166-202-112 0-168 67-168 202 0 117 52 197 168 197" id="ah"/><path fill="#3b3c40" d="M426 0L0-1118h319l216 637c24 81 39 157 45 229h6c3-64 15-141 45-229l215-637h319L739 0H426" id="ai"/><g id="i"><use transform="matrix(0.009765625,0,0,0.009765625,0,0)" xlink:href="#aa"/><use transform="matrix(0.009765625,0,0,0.009765625,10.283203125,0)" xlink:href="#Z"/><use transform="matrix(0.009765625,0,0,0.009765625,22.666015625,0)" xlink:href="#ah"/><use transform="matrix(0.009765625,0,0,0.009765625,33.96484375,0)" xlink:href="#W"/><use transform="matrix(0.009765625,0,0,0.009765625,47.109375,0)" xlink:href="#ae"/><use transform="matrix(0.009765625,0,0,0.009765625,53.212890625,0)" xlink:href="#R"/><use transform="matrix(0.009765625,0,0,0.009765625,61.89453125,0)" xlink:href="#ae"/><use transform="matrix(0.009765625,0,0,0.009765625,67.998046875,0)" xlink:href="#ai"/><use transform="matrix(0.009765625,0,0,0.009765625,79.375,0)" xlink:href="#T"/></g><path fill="#3b3c40" d="M465 0H160v-1556h305V0" id="aj"/><path fill="#3b3c40" d="M479-1483c251 0 448 128 449 363 0 73-17 137-50 190s-97 113-190 180c-64 47-104 84-122 108-27 36-26 95-25 157H276c-10-218 54-292 191-392 69-51 117-91 139-122s33-66 33-105c-1-95-79-134-182-133-100 0-214 33-342 98L6-1358c149-83 306-125 473-125zM420 27c-110 0-177-61-176-170 0-113 63-170 176-170 109-1 174 61 174 170 0 105-67 170-174 170" id="ak"/><g id="j"><use transform="matrix(0.009765625,0,0,0.009765625,0,0)" xlink:href="#Y"/><use transform="matrix(0.009765625,0,0,0.009765625,12.65625,0)" xlink:href="#T"/><use transform="matrix(0.009765625,0,0,0.009765625,24.47265625,0)" xlink:href="#aa"/><use transform="matrix(0.009765625,0,0,0.009765625,34.755859375,0)" xlink:href="#aj"/><use transform="matrix(0.009765625,0,0,0.009765625,40.859375,0)" xlink:href="#ae"/><use transform="matrix(0.009765625,0,0,0.009765625,46.962890625,0)" xlink:href="#W"/><use transform="matrix(0.009765625,0,0,0.009765625,60.107421875,0)" xlink:href="#T"/><use transform="matrix(0.009765625,0,0,0.009765625,71.923828125,0)" xlink:href="#ak"/></g><path fill="#3b3c40" d="M1608 0h-353c-89-370-200-713-266-1110C925-709 814-372 725 0H373L0-1462h305c83 378 199 789 258 1181 8-76 51-295 68-362l213-819h293l213 819c19 75 56 275 67 362 65-419 172-785 258-1181h305" id="al"/><g id="k"><use transform="matrix(0.009765625,0,0,0.009765625,0,0)" xlink:href="#al"/><use transform="matrix(0.009765625,0,0,0.009765625,19.3359375,0)" xlink:href="#S"/><use transform="matrix(0.009765625,0,0,0.009765625,32.48046875,0)" xlink:href="#V"/><use transform="matrix(0.009765625,0,0,0.009765625,44.560546875,0)" xlink:href="#R"/></g><g id="l"><use transform="matrix(0.009765625,0,0,0.009765625,0,0)" xlink:href="#ae"/><use transform="matrix(0.009765625,0,0,0.009765625,6.103515625,0)" xlink:href="#Q"/></g><g id="m"><use transform="matrix(0.009765625,0,0,0.009765625,0,0)" xlink:href="#R"/><use transform="matrix(0.009765625,0,0,0.009765625,8.681640625,0)" xlink:href="#S"/><use transform="matrix(0.009765625,0,0,0.009765625,21.826171875,0)" xlink:href="#T"/></g><g id="n"><use transform="matrix(0.009765625,0,0,0.009765625,0,0)" xlink:href="#Q"/><use transform="matrix(0.009765625,0,0,0.009765625,9.94140625,0)" xlink:href="#R"/><use transform="matrix(0.009765625,0,0,0.009765625,18.623046875,0)" xlink:href="#V"/><use transform="matrix(0.009765625,0,0,0.009765625,30.703125,0)" xlink:href="#ah"/><use transform="matrix(0.009765625,0,0,0.009765625,42.001953125,0)" xlink:href="#T"/></g><g id="o"><use transform="matrix(0.009765625,0,0,0.009765625,0,0)" xlink:href="#aa"/><use transform="matrix(0.009765625,0,0,0.009765625,10.283203125,0)" xlink:href="#Z"/><use transform="matrix(0.009765625,0,0,0.009765625,22.666015625,0)" xlink:href="#ah"/><use transform="matrix(0.009765625,0,0,0.009765625,33.96484375,0)" xlink:href="#W"/><use transform="matrix(0.009765625,0,0,0.009765625,47.109375,0)" xlink:href="#ae"/><use transform="matrix(0.009765625,0,0,0.009765625,53.212890625,0)" xlink:href="#R"/><use transform="matrix(0.009765625,0,0,0.009765625,61.89453125,0)" xlink:href="#ae"/><use transform="matrix(0.009765625,0,0,0.009765625,67.998046875,0)" xlink:href="#ai"/><use transform="matrix(0.009765625,0,0,0.009765625,79.375,0)" xlink:href="#T"/></g><g id="p"><use transform="matrix(0.009765625,0,0,0.009765625,0,0)" xlink:href="#ae"/><use transform="matrix(0.009765625,0,0,0.009765625,6.103515625,0)" xlink:href="#ac"/><use transform="matrix(0.009765625,0,0,0.009765625,25.7421875,0)" xlink:href="#ad"/><use transform="matrix(0.009765625,0,0,0.009765625,38.3984375,0)" xlink:href="#V"/><use transform="matrix(0.009765625,0,0,0.009765625,50.478515625,0)" xlink:href="#ae"/><use transform="matrix(0.009765625,0,0,0.009765625,56.58203125,0)" xlink:href="#U"/><use transform="matrix(0.009765625,0,0,0.009765625,65.6640625,0)" xlink:href="#ac"/><use transform="matrix(0.009765625,0,0,0.009765625,85.302734375,0)" xlink:href="#T"/><use transform="matrix(0.009765625,0,0,0.009765625,97.119140625,0)" xlink:href="#W"/><use transform="matrix(0.009765625,0,0,0.009765625,110.263671875,0)" xlink:href="#R"/><use transform="matrix(0.009765625,0,0,0.009765625,118.9453125,0)" xlink:href="#ak"/></g><path fill="#3b3c40" d="M1481 0h-394L451-1106h-9c33 431 14 683 19 1106H184v-1462h391l635 1095h7c-26-429-11-678-15-1095h279V0" id="am"/><g id="q"><use transform="matrix(0.009765625,0,0,0.009765625,0,0)" xlink:href="#am"/><use transform="matrix(0.009765625,0,0,0.009765625,16.259765625,0)" xlink:href="#Z"/></g><path fill="#3b3c40" d="M1133-1128c-95-42-202-97-328-97-258 0-367 218-367 498 0 326 122 489 367 489 103 0 227-26 373-77v260C1058-5 924 20 776 20c-443 0-662-290-657-749 5-455 236-754 686-754 142 0 285 34 428 103" id="an"/><g id="r"><use transform="matrix(0.009765625,0,0,0.009765625,0,0)" xlink:href="#an"/><use transform="matrix(0.009765625,0,0,0.009765625,12.744140625,0)" xlink:href="#Z"/><use transform="matrix(0.009765625,0,0,0.009765625,25.126953125,0)" xlink:href="#ah"/><use transform="matrix(0.009765625,0,0,0.009765625,36.42578125,0)" xlink:href="#W"/><use transform="matrix(0.009765625,0,0,0.009765625,49.5703125,0)" xlink:href="#ae"/><use transform="matrix(0.009765625,0,0,0.009765625,55.673828125,0)" xlink:href="#R"/><use transform="matrix(0.009765625,0,0,0.009765625,64.35546875,0)" xlink:href="#ae"/><use transform="matrix(0.009765625,0,0,0.009765625,70.458984375,0)" xlink:href="#ai"/><use transform="matrix(0.009765625,0,0,0.009765625,81.8359375,0)" xlink:href="#T"/></g><g id="s"><use transform="matrix(0.009765625,0,0,0.009765625,0,0)" xlink:href="#an"/><use transform="matrix(0.009765625,0,0,0.009765625,12.744140625,0)" xlink:href="#Z"/><use transform="matrix(0.009765625,0,0,0.009765625,25.126953125,0)" xlink:href="#W"/><use transform="matrix(0.009765625,0,0,0.009765625,38.271484375,0)" xlink:href="#aa"/><use transform="matrix(0.009765625,0,0,0.009765625,48.5546875,0)" xlink:href="#T"/><use transform="matrix(0.009765625,0,0,0.009765625,60.37109375,0)" xlink:href="#U"/><use transform="matrix(0.009765625,0,0,0.009765625,69.453125,0)" xlink:href="#W"/></g><g id="t"><use transform="matrix(0.009765625,0,0,0.009765625,0,0)" xlink:href="#an"/><use transform="matrix(0.009765625,0,0,0.009765625,12.744140625,0)" xlink:href="#Z"/><use transform="matrix(0.009765625,0,0,0.009765625,25.126953125,0)" xlink:href="#ah"/><use transform="matrix(0.009765625,0,0,0.009765625,36.42578125,0)" xlink:href="#W"/><use transform="matrix(0.009765625,0,0,0.009765625,49.5703125,0)" xlink:href="#ae"/><use transform="matrix(0.009765625,0,0,0.009765625,55.673828125,0)" xlink:href="#R"/><use transform="matrix(0.009765625,0,0,0.009765625,64.35546875,0)" xlink:href="#ae"/><use transform="matrix(0.009765625,0,0,0.009765625,70.458984375,0)" xlink:href="#ai"/><use transform="matrix(0.009765625,0,0,0.009765625,81.8359375,0)" xlink:href="#T"/></g><g id="u"><use transform="matrix(0.009765625,0,0,0.009765625,0,0)" xlink:href="#an"/><use transform="matrix(0.009765625,0,0,0.009765625,12.744140625,0)" xlink:href="#Z"/><use transform="matrix(0.009765625,0,0,0.009765625,25.126953125,0)" xlink:href="#W"/><use transform="matrix(0.009765625,0,0,0.009765625,38.271484375,0)" xlink:href="#aa"/><use transform="matrix(0.009765625,0,0,0.009765625,48.5546875,0)" xlink:href="#T"/><use transform="matrix(0.009765625,0,0,0.009765625,60.37109375,0)" xlink:href="#U"/><use transform="matrix(0.009765625,0,0,0.009765625,69.453125,0)" xlink:href="#W"/></g><path fill="#3b3c40" d="M776-240c213 0 289-110 289-329v-893h309v946c-8 356-241 531-606 536-358 5-595-195-594-540v-942h309v895c2 220 76 327 293 327" id="ao"/><g id="v"><use transform="matrix(0.009765625,0,0,0.009765625,0,0)" xlink:href="#ao"/><use transform="matrix(0.009765625,0,0,0.009765625,15.1171875,0)" xlink:href="#W"/><use transform="matrix(0.009765625,0,0,0.009765625,28.26171875,0)" xlink:href="#Y"/><use transform="matrix(0.009765625,0,0,0.009765625,40.91796875,0)" xlink:href="#T"/><use transform="matrix(0.009765625,0,0,0.009765625,52.734375,0)" xlink:href="#R"/><use transform="matrix(0.009765625,0,0,0.009765625,61.416015625,0)" xlink:href="#T"/><use transform="matrix(0.009765625,0,0,0.009765625,73.232421875,0)" xlink:href="#U"/><use transform="matrix(0.009765625,0,0,0.009765625,82.314453125,0)" xlink:href="#ac"/><use transform="matrix(0.009765625,0,0,0.009765625,101.953125,0)" xlink:href="#ae"/><use transform="matrix(0.009765625,0,0,0.009765625,108.056640625,0)" xlink:href="#W"/><use transform="matrix(0.009765625,0,0,0.009765625,121.201171875,0)" xlink:href="#T"/><use transform="matrix(0.009765625,0,0,0.009765625,133.017578125,0)" xlink:href="#Y"/></g><path fill="#3b3c40" d="M596-1225c-134-8-223 103-163 219 11 21 33 41 61 60s93 53 196 102c137 65 230 130 281 196s76 147 76 242c-3 286-231 426-539 426C352 20 214-9 94-68v-288c159 68 260 115 438 120 123 3 211-41 211-155 0-73-44-105-95-141-63-46-329-160-390-220-78-77-147-167-147-315 0-273 208-420 495-416 177 2 298 46 434 103l-100 241c-131-51-199-78-344-86" id="ap"/><path fill="#3b3c40" d="M782-1139c292 0 422 259 422 578 0 185-39 328-116 429S907 20 774 20c-131 0-234-48-309-143h-21L393 0H160v-1556h305c-3 221 8 361-12 583h12c71-111 177-166 317-166zM465-596c-3 221 29 369 223 369 63 0 110-31 150-87 71-99 72-401-1-498-40-53-88-83-153-83-174 0-216 109-219 299" id="aq"/><path fill="#3b3c40" d="M465 121c1 241-150 373-395 371-78 0-145-8-201-25V227c47 13 94 19 143 19 107 0 147-62 148-170v-1194h305V121zm14-1528c-1 99-61 150-166 150-111 0-166-50-166-150 0-99 55-149 166-149s166 50 166 149" id="ar"/><g id="w"><use transform="matrix(0.009765625,0,0,0.009765625,0,0)" xlink:href="#ap"/><use transform="matrix(0.009765625,0,0,0.009765625,11.015625,0)" xlink:href="#ab"/><use transform="matrix(0.009765625,0,0,0.009765625,24.16015625,0)" xlink:href="#aq"/><use transform="matrix(0.009765625,0,0,0.009765625,36.81640625,0)" xlink:href="#ar"/><use transform="matrix(0.009765625,0,0,0.009765625,42.919921875,0)" xlink:href="#T"/><use transform="matrix(0.009765625,0,0,0.009765625,54.736328125,0)" xlink:href="#aa"/><use transform="matrix(0.009765625,0,0,0.009765625,65.01953125,0)" xlink:href="#R"/><use transform="matrix(0.009765625,0,0,0.009765625,73.701171875,0)" xlink:href="#ae"/><use transform="matrix(0.009765625,0,0,0.009765625,79.8046875,0)" xlink:href="#ai"/><use transform="matrix(0.009765625,0,0,0.009765625,91.181640625,0)" xlink:href="#T"/></g><g id="x"><use transform="matrix(0.009765625,0,0,0.009765625,0,0)" xlink:href="#an"/><use transform="matrix(0.009765625,0,0,0.009765625,12.744140625,0)" xlink:href="#Z"/><use transform="matrix(0.009765625,0,0,0.009765625,25.126953125,0)" xlink:href="#ah"/><use transform="matrix(0.009765625,0,0,0.009765625,36.42578125,0)" xlink:href="#W"/><use transform="matrix(0.009765625,0,0,0.009765625,49.5703125,0)" xlink:href="#ae"/><use transform="matrix(0.009765625,0,0,0.009765625,55.673828125,0)" xlink:href="#R"/><use transform="matrix(0.009765625,0,0,0.009765625,64.35546875,0)" xlink:href="#ae"/><use transform="matrix(0.009765625,0,0,0.009765625,70.458984375,0)" xlink:href="#ai"/><use transform="matrix(0.009765625,0,0,0.009765625,81.8359375,0)" xlink:href="#T"/></g><g id="y"><use transform="matrix(0.009765625,0,0,0.009765625,0,0)" xlink:href="#an"/><use transform="matrix(0.009765625,0,0,0.009765625,12.744140625,0)" xlink:href="#Z"/><use transform="matrix(0.009765625,0,0,0.009765625,25.126953125,0)" xlink:href="#W"/><use transform="matrix(0.009765625,0,0,0.009765625,38.271484375,0)" xlink:href="#aa"/><use transform="matrix(0.009765625,0,0,0.009765625,48.5546875,0)" xlink:href="#T"/><use transform="matrix(0.009765625,0,0,0.009765625,60.37109375,0)" xlink:href="#U"/><use transform="matrix(0.009765625,0,0,0.009765625,69.453125,0)" xlink:href="#W"/></g><path fill="#3b3c40" d="M383 324C201 116 82-188 82-561c0-378 120-688 301-901h250c-169 228-285 531-285 899 0 362 119 666 283 887H383" id="as"/><path fill="#3b3c40" d="M311-1462c182 213 301 524 301 901 0 373-119 679-301 885H63c163-221 283-525 283-887 0-368-116-672-285-899h250" id="at"/><g id="z"><use transform="matrix(0.009765625,0,0,0.009765625,0,0)" xlink:href="#as"/><use transform="matrix(0.009765625,0,0,0.009765625,6.77734375,0)" xlink:href="#ap"/><use transform="matrix(0.009765625,0,0,0.009765625,17.79296875,0)" xlink:href="#an"/><use transform="matrix(0.009765625,0,0,0.009765625,30.13671875,0)" xlink:href="#an"/><use transform="matrix(0.009765625,0,0,0.009765625,42.880859375,0)" xlink:href="#at"/></g><path fill="#3b3c40" d="M1458 0c3-430-10-709 15-1145h-9L1087 0H803L451-1147h-9c31 483 15 690 19 1147H184v-1462h422L952-344h6l367-1118h422V0h-289" id="au"/><g id="A"><use transform="matrix(0.009765625,0,0,0.009765625,0,0)" xlink:href="#au"/><use transform="matrix(0.009765625,0,0,0.009765625,18.857421875,0)" xlink:href="#ae"/><use transform="matrix(0.009765625,0,0,0.009765625,24.9609375,0)" xlink:href="#aj"/><use transform="matrix(0.009765625,0,0,0.009765625,31.064453125,0)" xlink:href="#Y"/></g><g id="B"><use transform="matrix(0.009765625,0,0,0.009765625,0,0)" xlink:href="#an"/><use transform="matrix(0.009765625,0,0,0.009765625,12.744140625,0)" xlink:href="#Z"/><use transform="matrix(0.009765625,0,0,0.009765625,25.126953125,0)" xlink:href="#ah"/><use transform="matrix(0.009765625,0,0,0.009765625,36.42578125,0)" xlink:href="#W"/><use transform="matrix(0.009765625,0,0,0.009765625,49.5703125,0)" xlink:href="#ae"/><use transform="matrix(0.009765625,0,0,0.009765625,55.673828125,0)" xlink:href="#R"/><use transform="matrix(0.009765625,0,0,0.009765625,64.35546875,0)" xlink:href="#ae"/><use transform="matrix(0.009765625,0,0,0.009765625,70.458984375,0)" xlink:href="#ai"/><use transform="matrix(0.009765625,0,0,0.009765625,81.8359375,0)" xlink:href="#T"/></g><g id="C"><use transform="matrix(0.009765625,0,0,0.009765625,0,0)" xlink:href="#P"/><use transform="matrix(0.009765625,0,0,0.009765625,6.62109375,0)" xlink:href="#ac"/><use transform="matrix(0.009765625,0,0,0.009765625,26.259765625,0)" xlink:href="#ad"/><use transform="matrix(0.009765625,0,0,0.009765625,38.916015625,0)" xlink:href="#V"/><use transform="matrix(0.009765625,0,0,0.009765625,50.99609375,0)" xlink:href="#ae"/><use transform="matrix(0.009765625,0,0,0.009765625,57.099609375,0)" xlink:href="#U"/><use transform="matrix(0.009765625,0,0,0.009765625,66.181640625,0)" xlink:href="#ac"/><use transform="matrix(0.009765625,0,0,0.009765625,85.8203125,0)" xlink:href="#T"/><use transform="matrix(0.009765625,0,0,0.009765625,97.63671875,0)" xlink:href="#W"/><use transform="matrix(0.009765625,0,0,0.009765625,110.78125,0)" xlink:href="#R"/></g><g id="D"><use transform="matrix(0.009765625,0,0,0.009765625,0,0)" xlink:href="#as"/><use transform="matrix(0.009765625,0,0,0.009765625,6.77734375,0)" xlink:href="#au"/><use transform="matrix(0.009765625,0,0,0.009765625,25.634765625,0)" xlink:href="#an"/><use transform="matrix(0.009765625,0,0,0.009765625,38.37890625,0)" xlink:href="#P"/><use transform="matrix(0.009765625,0,0,0.009765625,45,0)" xlink:href="#at"/></g><g id="E"><use transform="matrix(0.009765625,0,0,0.009765625,0,0)" xlink:href="#au"/><use transform="matrix(0.009765625,0,0,0.009765625,18.857421875,0)" xlink:href="#ae"/><use transform="matrix(0.009765625,0,0,0.009765625,24.9609375,0)" xlink:href="#aj"/><use transform="matrix(0.009765625,0,0,0.009765625,31.064453125,0)" xlink:href="#Y"/></g><g id="F"><use transform="matrix(0.009765625,0,0,0.009765625,0,0)" xlink:href="#au"/><use transform="matrix(0.009765625,0,0,0.009765625,18.857421875,0)" xlink:href="#Z"/><use transform="matrix(0.009765625,0,0,0.009765625,31.240234375,0)" xlink:href="#Y"/><use transform="matrix(0.009765625,0,0,0.009765625,43.896484375,0)" xlink:href="#T"/><use transform="matrix(0.009765625,0,0,0.009765625,55.712890625,0)" xlink:href="#U"/><use transform="matrix(0.009765625,0,0,0.009765625,64.39453125,0)" xlink:href="#V"/><use transform="matrix(0.009765625,0,0,0.009765625,76.474609375,0)" xlink:href="#R"/><use transform="matrix(0.009765625,0,0,0.009765625,85.15625,0)" xlink:href="#T"/></g><path fill="#fff" d="M596-1225c-134-8-223 103-163 219 11 21 33 41 61 60s93 53 196 102c137 65 230 130 281 196s76 147 76 242c-3 286-231 426-539 426C352 20 214-9 94-68v-288c159 68 260 115 438 120 123 3 211-41 211-155 0-73-44-105-95-141-63-46-329-160-390-220-78-77-147-167-147-315 0-273 208-420 495-416 177 2 298 46 434 103l-100 241c-131-51-199-78-344-86" id="av"/><path fill="#fff" d="M836-686c0-141-77-236-213-236-140 0-206 98-215 236h428zm223 627C946-4 838 19 666 20 308 22 92-191 92-551c0-356 187-588 529-588 314 0 504 195 501 508v148H401c5 169 104 277 279 276 158-2 261-33 379-88v236" id="aw"/><path fill="#fff" d="M426 0L0-1118h319l216 637c24 81 39 157 45 229h6c3-64 15-141 45-229l215-637h319L739 0H426" id="ax"/><path fill="#fff" d="M451-930c71-134 228-244 436-200l-23 286c-220-45-399 61-399 275V0H160v-1118h231l45 188h15" id="ay"/><g id="G"><use transform="matrix(0.009765625,0,0,0.009765625,0,0)" xlink:href="#av"/><use transform="matrix(0.009765625,0,0,0.009765625,11.015625,0)" xlink:href="#aw"/><use transform="matrix(0.009765625,0,0,0.009765625,22.431640625,0)" xlink:href="#ax"/><use transform="matrix(0.009765625,0,0,0.009765625,33.80859375,0)" xlink:href="#aw"/><use transform="matrix(0.009765625,0,0,0.009765625,45.625,0)" xlink:href="#ay"/><use transform="matrix(0.009765625,0,0,0.009765625,54.306640625,0)" xlink:href="#aw"/></g><path fill="#3b3c40" d="M817-1485c460 0 694 282 694 752 0 343-125 581-360 688l352 393h-397L838 20c-476 9-719-278-719-755 0-471 238-750 698-750zm0 258c-273 0-374 198-373 494 0 296 98 493 371 493 247 0 371-164 371-493s-123-494-369-494" id="az"/><path fill="#3b3c40" d="M1026 0H184v-1462h842v254H494v321h495v254H494v377h532V0" id="aA"/><path fill="#3b3c40" d="M748 0H438v-1204H41v-258h1104v258H748V0" id="aB"/><path fill="#3b3c40" d="M817-1485c460 0 694 282 694 752 0 468-238 753-696 753-459 0-696-285-696-755 0-471 238-750 698-750zm0 258c-273 0-374 198-373 494 0 296 98 493 371 493 247 0 371-164 371-493s-123-494-369-494" id="aC"/><g id="H"><use transform="matrix(0.013020833333333332,0,0,0.013020833333333332,0,0)" xlink:href="#az"/><use transform="matrix(0.013020833333333332,0,0,0.013020833333333332,21.223958333333332,0)" xlink:href="#ao"/><use transform="matrix(0.013020833333333332,0,0,0.013020833333333332,41.38020833333333,0)" xlink:href="#aA"/><use transform="matrix(0.013020833333333332,0,0,0.013020833333333332,56.315104166666664,0)" xlink:href="#ap"/><use transform="matrix(0.013020833333333332,0,0,0.013020833333333332,71.00260416666666,0)" xlink:href="#aB"/><use transform="matrix(0.013020833333333332,0,0,0.013020833333333332,86.44531249999999,0)" xlink:href="#P"/><use transform="matrix(0.013020833333333332,0,0,0.013020833333333332,95.27343749999999,0)" xlink:href="#aC"/><use transform="matrix(0.013020833333333332,0,0,0.013020833333333332,116.49739583333333,0)" xlink:href="#am"/></g><path fill="#3b3c40" d="M999-844l-47 232h258v206H913L836 0H616l78-406H500L424 0H209l74-406H45v-206h277l47-232H117v-209h289l77-407h219l-77 407h198l78-407h215l-78 407h240v209H999zM539-612h196l47-232H586" id="aD"/><path fill="#3b3c40" d="M846 0H537c2-380-6-768 8-1137-108 112-167 145-275 236l-149-186 471-375h254V0" id="aE"/><g id="I"><use transform="matrix(0.013020833333333332,0,0,0.013020833333333332,0,0)" xlink:href="#aD"/><use transform="matrix(0.013020833333333332,0,0,0.013020833333333332,17.2265625,0)" xlink:href="#aE"/></g><path fill="#3b3c40" d="M600-1483c268 0 463 136 463 396 0 168-62 262-145 371-76 99-325 321-451 442v14h637V0H82v-215c165-170 448-439 580-603 57-71 91-127 94-233 3-114-68-174-178-174-148 0-233 73-332 150L78-1274c156-133 262-209 522-209" id="aF"/><g id="J"><use transform="matrix(0.013020833333333332,0,0,0.013020833333333332,0,0)" xlink:href="#aD"/><use transform="matrix(0.013020833333333332,0,0,0.013020833333333332,17.2265625,0)" xlink:href="#aF"/></g><g id="K"><use transform="matrix(0.009765625,0,0,0.009765625,0,0)" xlink:href="#P"/><use transform="matrix(0.009765625,0,0,0.009765625,6.62109375,0)" xlink:href="#ac"/><use transform="matrix(0.009765625,0,0,0.009765625,26.259765625,0)" xlink:href="#ad"/><use transform="matrix(0.009765625,0,0,0.009765625,38.916015625,0)" xlink:href="#V"/><use transform="matrix(0.009765625,0,0,0.009765625,50.99609375,0)" xlink:href="#ae"/><use transform="matrix(0.009765625,0,0,0.009765625,57.099609375,0)" xlink:href="#U"/><use transform="matrix(0.009765625,0,0,0.009765625,66.181640625,0)" xlink:href="#ac"/><use transform="matrix(0.009765625,0,0,0.009765625,85.8203125,0)" xlink:href="#T"/><use transform="matrix(0.009765625,0,0,0.009765625,97.63671875,0)" xlink:href="#W"/><use transform="matrix(0.009765625,0,0,0.009765625,110.78125,0)" xlink:href="#R"/></g><g id="L"><use transform="matrix(0.009765625,0,0,0.009765625,0,0)" xlink:href="#am"/><use transform="matrix(0.009765625,0,0,0.009765625,16.259765625,0)" xlink:href="#Z"/></g><path fill="#3b3c40" d="M643-1462c464-5 754 260 754 717 0 491-297 749-799 745H184v-1462h459zm432 725c0-314-139-471-416-471H494v952h133c299 0 448-160 448-481" id="aG"/><g id="M"><use transform="matrix(0.009765625,0,0,0.009765625,0,0)" xlink:href="#aG"/><use transform="matrix(0.009765625,0,0,0.009765625,14.8046875,0)" xlink:href="#T"/><use transform="matrix(0.009765625,0,0,0.009765625,26.62109375,0)" xlink:href="#ac"/><use transform="matrix(0.009765625,0,0,0.009765625,46.259765625,0)" xlink:href="#T"/><use transform="matrix(0.009765625,0,0,0.009765625,58.076171875,0)" xlink:href="#W"/><use transform="matrix(0.009765625,0,0,0.009765625,71.220703125,0)" xlink:href="#R"/><use transform="matrix(0.009765625,0,0,0.009765625,79.90234375,0)" xlink:href="#ae"/><use transform="matrix(0.009765625,0,0,0.009765625,86.005859375,0)" xlink:href="#V"/></g><g id="N"><use transform="matrix(0.009765625,0,0,0.009765625,0,0)" xlink:href="#as"/><use transform="matrix(0.009765625,0,0,0.009765625,6.77734375,0)" xlink:href="#an"/><use transform="matrix(0.009765625,0,0,0.009765625,19.521484375,0)" xlink:href="#P"/><use transform="matrix(0.009765625,0,0,0.009765625,26.142578125,0)" xlink:href="#am"/><use transform="matrix(0.009765625,0,0,0.009765625,42.40234375,0)" xlink:href="#aG"/><use transform="matrix(0.009765625,0,0,0.009765625,57.20703125,0)" xlink:href="#at"/></g><g id="O"><use transform="matrix(0.009765625,0,0,0.009765625,0,0)" xlink:href="#aG"/><use transform="matrix(0.009765625,0,0,0.009765625,14.8046875,0)" xlink:href="#T"/><use transform="matrix(0.009765625,0,0,0.009765625,26.62109375,0)" xlink:href="#ac"/><use transform="matrix(0.009765625,0,0,0.009765625,46.259765625,0)" xlink:href="#T"/><use transform="matrix(0.009765625,0,0,0.009765625,58.076171875,0)" xlink:href="#W"/><use transform="matrix(0.009765625,0,0,0.009765625,71.220703125,0)" xlink:href="#R"/><use transform="matrix(0.009765625,0,0,0.009765625,79.90234375,0)" xlink:href="#ae"/><use transform="matrix(0.009765625,0,0,0.009765625,86.005859375,0)" xlink:href="#V"/></g></defs></g></svg>