<svg xmlns="http://www.w3.org/2000/svg" xmlns:xlink="http://www.w3.org/1999/xlink" xmlns:lucid="lucid" width="2160" height="200"><g transform="translate(-220 -971.8666666666668)" lucid:page-tab-id="0_0"><path d="M0 0h2797.3v3514H0z" fill="#fff"/><path d="M240 997.87c0-3.32 2.7-6 6-6h428c3.3 0 6 2.68 6 6v148c0 3.3-2.7 6-6 6H246c-3.3 0-6-2.7-6-6z" stroke="#4881b3" stroke-width="3" fill="#ffeca9"/><path d="M260 1009.58c0-3.32 2.7-6 6-6h388c3.3 0 6 2.68 6 6v128.15c0 3.32-2.7 6-6 6H266c-3.3 0-6-2.68-6-6z" stroke="#000" stroke-opacity="0" fill="#ffeca9"/><use xlink:href="#a" transform="matrix(1,0,0,1,265,1008.5778606773512) translate(50.45524691358028 53.85555555555556)"/><use xlink:href="#b" transform="matrix(1,0,0,1,265,1008.5778606773512) translate(220.02746913580248 53.85555555555556)"/><use xlink:href="#c" transform="matrix(1,0,0,1,265,1008.5778606773512) translate(276.6324074074074 53.85555555555556)"/><use xlink:href="#d" transform="matrix(1,0,0,1,265,1008.5778606773512) translate(48.7975308641976 88.78888888888889)"/><use xlink:href="#e" transform="matrix(1,0,0,1,265,1008.5778606773512) translate(200.6604938271605 88.78888888888889)"/><path d="M800 997.87c0-3.32 2.7-6 6-6h428c3.3 0 6 2.68 6 6v148c0 3.3-2.7 6-6 6H806c-3.3 0-6-2.7-6-6z" stroke="#4881b3" stroke-width="3" fill="#ffeca9"/><path d="M820 1009.58c0-3.32 2.7-6 6-6h388c3.3 0 6 2.68 6 6v128.15c0 3.32-2.7 6-6 6H826c-3.3 0-6-2.68-6-6z" stroke="#000" stroke-opacity="0" fill="#ffeca9"/><use xlink:href="#f" transform="matrix(1,0,0,1,825,1008.5778606773512) translate(34.28240740740745 53.85555555555556)"/><use xlink:href="#g" transform="matrix(1,0,0,1,825,1008.5778606773512) translate(185.98364197530861 53.85555555555556)"/><use xlink:href="#h" transform="matrix(1,0,0,1,825,1008.5778606773512) translate(155.4574074074074 88.78888888888889)"/><path d="M1360 997.87c0-3.32 2.7-6 6-6h428c3.3 0 6 2.68 6 6v148c0 3.3-2.7 6-6 6h-428c-3.3 0-6-2.7-6-6z" stroke="#4881b3" stroke-width="3" fill="#ffeca9"/><path d="M1380 1009.58c0-3.32 2.7-6 6-6h388c3.3 0 6 2.68 6 6v128.15c0 3.32-2.7 6-6 6h-388c-3.3 0-6-2.68-6-6z" stroke="#000" stroke-opacity="0" fill="#ffeca9"/><use xlink:href="#i" transform="matrix(1,0,0,1,1385,1008.5778606773512) translate(16.249691358024762 36.38888888888889)"/><use xlink:href="#j" transform="matrix(1,0,0,1,1385,1008.5778606773512) translate(89.35092592592598 36.38888888888889)"/><use xlink:href="#k" transform="matrix(1,0,0,1,1385,1008.5778606773512) translate(129.78302469135807 36.38888888888889)"/><use xlink:href="#l" transform="matrix(1,0,0,1,1385,1008.5778606773512) translate(233.0466049382716 36.38888888888889)"/><use xlink:href="#m" transform="matrix(1,0,0,1,1385,1008.5778606773512) translate(105.36203703703706 71.32222222222222)"/><use xlink:href="#n" transform="matrix(1,0,0,1,1385,1008.5778606773512) translate(165.0398148148148 71.32222222222222)"/><use xlink:href="#o" transform="matrix(1,0,0,1,1385,1008.5778606773512) translate(10.953086419753163 106.25555555555553)"/><use xlink:href="#p" transform="matrix(1,0,0,1,1385,1008.5778606773512) translate(224.11111111111114 106.25555555555553)"/><path d="M1920 997.87c0-3.32 2.7-6 6-6h428c3.3 0 6 2.68 6 6v148c0 3.3-2.7 6-6 6h-428c-3.3 0-6-2.7-6-6z" stroke="#4881b3" stroke-width="3" fill="#ffeca9"/><path d="M1940 1009.58c0-3.32 2.7-6 6-6h388c3.3 0 6 2.68 6 6v128.15c0 3.32-2.7 6-6 6h-388c-3.3 0-6-2.68-6-6z" stroke="#000" stroke-opacity="0" fill="#ffeca9"/><g><use xlink:href="#q" transform="matrix(1,0,0,1,1945,1008.5778606773512) translate(0 71.32222222222222)"/><use xlink:href="#j" transform="matrix(1,0,0,1,1945,1008.5778606773512) translate(121.21543209876539 71.32222222222222)"/><use xlink:href="#r" transform="matrix(1,0,0,1,1945,1008.5778606773512) translate(161.64753086419748 71.32222222222222)"/><use xlink:href="#s" transform="matrix(1,0,0,1,1945,1008.5778606773512) translate(274.6956790123456 71.32222222222222)"/><use xlink:href="#t" transform="matrix(1,0,0,1,1945,1008.5778606773512) translate(329.6833333333332 71.32222222222222)"/></g><path d="M682.5 1071.87H780" stroke="#224c72" stroke-width="2" fill="none"/><path d="M682.53 1072.87h-1.03v-2h1.03" fill="#224c72"/><path d="M795.26 1071.87L781 1076.5v-9.27z" stroke="#224c72" stroke-width="2" fill="#224c72"/><path d="M1242.5 1071.87h97.5" stroke="#224c72" stroke-width="2" fill="none"/><path d="M1242.53 1072.87h-1.03v-2h1.03" fill="#224c72"/><path d="M1355.26 1071.87l-14.26 4.63v-9.27z" stroke="#224c72" stroke-width="2" fill="#224c72"/><path d="M1802.5 1071.87h97.5" stroke="#224c72" stroke-width="2" fill="none"/><path d="M1802.53 1072.87h-1.03v-2h1.03" fill="#224c72"/><path d="M1915.26 1071.87l-14.26 4.63v-9.27z" stroke="#224c72" stroke-width="2" fill="#224c72"/><defs><path fill="#1d262b" d="M127-220V0H93v-220H8v-28h204v28h-85" id="u"/><path fill="#1d262b" d="M100-194c62-1 85 37 85 99 1 63-27 99-86 99S16-35 15-95c0-66 28-99 85-99zM99-20c44 1 53-31 53-75 0-43-8-75-51-75s-53 32-53 75 10 74 51 75" id="v"/><path fill="#1d262b" d="M143 0L79-87 56-68V0H24v-261h32v163l83-92h37l-77 82L181 0h-38" id="w"/><path fill="#1d262b" d="M100-194c63 0 86 42 84 106H49c0 40 14 67 53 68 26 1 43-12 49-29l28 8c-11 28-37 45-77 45C44 4 14-33 15-96c1-61 26-98 85-98zm52 81c6-60-76-77-97-28-3 7-6 17-6 28h103" id="x"/><path fill="#1d262b" d="M117-194c89-4 53 116 60 194h-32v-121c0-31-8-49-39-48C34-167 62-67 57 0H25l-1-190h30c1 10-1 24 2 32 11-22 29-35 61-36" id="y"/><path fill="#1d262b" d="M24-231v-30h32v30H24zM24 0v-190h32V0H24" id="z"/><path fill="#1d262b" d="M9 0v-24l116-142H16v-24h144v24L44-24h123V0H9" id="A"/><path fill="#1d262b" d="M141-36C126-15 110 5 73 4 37 3 15-17 15-53c-1-64 63-63 125-63 3-35-9-54-41-54-24 1-41 7-42 31l-33-3c5-37 33-52 76-52 45 0 72 20 72 64v82c-1 20 7 32 28 27v20c-31 9-61-2-59-35zM48-53c0 20 12 33 32 33 41-3 63-29 60-74-43 2-92-5-92 41" id="B"/><path fill="#1d262b" d="M59-47c-2 24 18 29 38 22v24C64 9 27 4 27-40v-127H5v-23h24l9-43h21v43h35v23H59v120" id="C"/><g id="a"><use transform="matrix(0.08086419753086417,0,0,0.08086419753086417,0,0)" xlink:href="#u"/><use transform="matrix(0.08086419753086417,0,0,0.08086419753086417,14.474691358024684,0)" xlink:href="#v"/><use transform="matrix(0.08086419753086417,0,0,0.08086419753086417,30.64753086419752,0)" xlink:href="#w"/><use transform="matrix(0.08086419753086417,0,0,0.08086419753086417,45.20308641975307,0)" xlink:href="#x"/><use transform="matrix(0.08086419753086417,0,0,0.08086419753086417,61.375925925925905,0)" xlink:href="#y"/><use transform="matrix(0.08086419753086417,0,0,0.08086419753086417,77.54876543209875,0)" xlink:href="#z"/><use transform="matrix(0.08086419753086417,0,0,0.08086419753086417,83.93703703703702,0)" xlink:href="#A"/><use transform="matrix(0.08086419753086417,0,0,0.08086419753086417,98.49259259259256,0)" xlink:href="#B"/><use transform="matrix(0.08086419753086417,0,0,0.08086419753086417,114.6654320987654,0)" xlink:href="#C"/><use transform="matrix(0.08086419753086417,0,0,0.08086419753086417,122.75185185185181,0)" xlink:href="#z"/><use transform="matrix(0.08086419753086417,0,0,0.08086419753086417,129.1401234567901,0)" xlink:href="#v"/><use transform="matrix(0.08086419753086417,0,0,0.08086419753086417,145.31296296296293,0)" xlink:href="#y"/></g><path fill="#1d262b" d="M85-194c31 0 48 13 60 33l-1-100h32l1 261h-30c-2-10 0-23-3-31C134-8 116 4 85 4 32 4 16-35 15-94c0-66 23-100 70-100zm9 24c-40 0-46 34-46 75 0 40 6 74 45 74 42 0 51-32 51-76 0-42-9-74-50-73" id="D"/><g id="b"><use transform="matrix(0.08086419753086417,0,0,0.08086419753086417,0,0)" xlink:href="#B"/><use transform="matrix(0.08086419753086417,0,0,0.08086419753086417,16.172839506172835,0)" xlink:href="#y"/><use transform="matrix(0.08086419753086417,0,0,0.08086419753086417,32.34567901234567,0)" xlink:href="#D"/></g><path fill="#1d262b" d="M206 0h-36l-40-164L89 0H53L-1-190h32L70-26l43-164h34l41 164 42-164h31" id="E"/><path fill="#1d262b" d="M114-163C36-179 61-72 57 0H25l-1-190h30c1 12-1 29 2 39 6-27 23-49 58-41v29" id="F"/><g id="c"><use transform="matrix(0.08086419753086417,0,0,0.08086419753086417,0,0)" xlink:href="#E"/><use transform="matrix(0.08086419753086417,0,0,0.08086419753086417,20.94382716049382,0)" xlink:href="#v"/><use transform="matrix(0.08086419753086417,0,0,0.08086419753086417,37.11666666666666,0)" xlink:href="#F"/><use transform="matrix(0.08086419753086417,0,0,0.08086419753086417,46.7395061728395,0)" xlink:href="#D"/></g><path fill="#1d262b" d="M210-169c-67 3-38 105-44 169h-31v-121c0-29-5-50-35-48C34-165 62-65 56 0H25l-1-190h30c1 10-1 24 2 32 10-44 99-50 107 0 11-21 27-35 58-36 85-2 47 119 55 194h-31v-121c0-29-5-49-35-48" id="G"/><path fill="#1d262b" d="M115-194c53 0 69 39 70 98 0 66-23 100-70 100C84 3 66-7 56-30L54 0H23l1-261h32v101c10-23 28-34 59-34zm-8 174c40 0 45-34 45-75 0-40-5-75-45-74-42 0-51 32-51 76 0 43 10 73 51 73" id="H"/><path fill="#1d262b" d="M177-190C167-65 218 103 67 71c-23-6-38-20-44-43l32-5c15 47 100 32 89-28v-30C133-14 115 1 83 1 29 1 15-40 15-95c0-56 16-97 71-98 29-1 48 16 59 35 1-10 0-23 2-32h30zM94-22c36 0 50-32 50-73 0-42-14-75-50-75-39 0-46 34-46 75s6 73 46 73" id="I"/><g id="d"><use transform="matrix(0.08086419753086417,0,0,0.08086419753086417,0,0)" xlink:href="#x"/><use transform="matrix(0.08086419753086417,0,0,0.08086419753086417,16.172839506172835,0)" xlink:href="#G"/><use transform="matrix(0.08086419753086417,0,0,0.08086419753086417,40.35123456790122,0)" xlink:href="#H"/><use transform="matrix(0.08086419753086417,0,0,0.08086419753086417,56.52407407407406,0)" xlink:href="#x"/><use transform="matrix(0.08086419753086417,0,0,0.08086419753086417,72.6969135802469,0)" xlink:href="#D"/><use transform="matrix(0.08086419753086417,0,0,0.08086419753086417,88.86975308641975,0)" xlink:href="#D"/><use transform="matrix(0.08086419753086417,0,0,0.08086419753086417,105.04259259259257,0)" xlink:href="#z"/><use transform="matrix(0.08086419753086417,0,0,0.08086419753086417,111.43086419753085,0)" xlink:href="#y"/><use transform="matrix(0.08086419753086417,0,0,0.08086419753086417,127.60370370370369,0)" xlink:href="#I"/></g><path fill="#1d262b" d="M96-169c-40 0-48 33-48 73s9 75 48 75c24 0 41-14 43-38l32 2c-6 37-31 61-74 61-59 0-76-41-82-99-10-93 101-131 147-64 4 7 5 14 7 22l-32 3c-4-21-16-35-41-35" id="J"/><path fill="#1d262b" d="M108 0H70L1-190h34L89-25l56-165h34" id="K"/><path fill="#1d262b" d="M135-143c-3-34-86-38-87 0 15 53 115 12 119 90S17 21 10-45l28-5c4 36 97 45 98 0-10-56-113-15-118-90-4-57 82-63 122-42 12 7 21 19 24 35" id="L"/><g id="e"><use transform="matrix(0.08086419753086417,0,0,0.08086419753086417,0,0)" xlink:href="#J"/><use transform="matrix(0.08086419753086417,0,0,0.08086419753086417,14.55555555555555,0)" xlink:href="#v"/><use transform="matrix(0.08086419753086417,0,0,0.08086419753086417,30.728395061728385,0)" xlink:href="#y"/><use transform="matrix(0.08086419753086417,0,0,0.08086419753086417,46.90123456790122,0)" xlink:href="#K"/><use transform="matrix(0.08086419753086417,0,0,0.08086419753086417,61.45679012345677,0)" xlink:href="#x"/><use transform="matrix(0.08086419753086417,0,0,0.08086419753086417,77.6296296296296,0)" xlink:href="#F"/><use transform="matrix(0.08086419753086417,0,0,0.08086419753086417,87.25246913580244,0)" xlink:href="#L"/><use transform="matrix(0.08086419753086417,0,0,0.08086419753086417,101.80802469135799,0)" xlink:href="#z"/><use transform="matrix(0.08086419753086417,0,0,0.08086419753086417,108.19629629629625,0)" xlink:href="#v"/><use transform="matrix(0.08086419753086417,0,0,0.08086419753086417,124.36913580246909,0)" xlink:href="#y"/></g><path fill="#1d262b" d="M30-248c87 1 191-15 191 75 0 78-77 80-158 76V0H30v-248zm33 125c57 0 124 11 124-50 0-59-68-47-124-48v98" id="M"/><path fill="#1d262b" d="M16-82v-28h88v28H16" id="N"/><g id="f"><use transform="matrix(0.08086419753086417,0,0,0.08086419753086417,0,0)" xlink:href="#M"/><use transform="matrix(0.08086419753086417,0,0,0.08086419753086417,19.4074074074074,0)" xlink:href="#F"/><use transform="matrix(0.08086419753086417,0,0,0.08086419753086417,29.03024691358024,0)" xlink:href="#x"/><use transform="matrix(0.08086419753086417,0,0,0.08086419753086417,45.20308641975307,0)" xlink:href="#N"/><use transform="matrix(0.08086419753086417,0,0,0.08086419753086417,54.82592592592591,0)" xlink:href="#C"/><use transform="matrix(0.08086419753086417,0,0,0.08086419753086417,62.912345679012326,0)" xlink:href="#F"/><use transform="matrix(0.08086419753086417,0,0,0.08086419753086417,72.53518518518516,0)" xlink:href="#B"/><use transform="matrix(0.08086419753086417,0,0,0.08086419753086417,88.70802469135799,0)" xlink:href="#z"/><use transform="matrix(0.08086419753086417,0,0,0.08086419753086417,95.09629629629626,0)" xlink:href="#y"/><use transform="matrix(0.08086419753086417,0,0,0.08086419753086417,111.2691358024691,0)" xlink:href="#x"/><use transform="matrix(0.08086419753086417,0,0,0.08086419753086417,127.44197530864193,0)" xlink:href="#D"/></g><path fill="#1d262b" d="M212-179c-10-28-35-45-73-45-59 0-87 40-87 99 0 60 29 101 89 101 43 0 62-24 78-52l27 14C228-24 195 4 139 4 59 4 22-46 18-125c-6-104 99-153 187-111 19 9 31 26 39 46" id="O"/><path fill="#1d262b" d="M24 0v-261h32V0H24" id="P"/><path fill="#1d262b" d="M160-131c35 5 61 23 61 61C221 17 115-2 30 0v-248c76 3 177-17 177 60 0 33-19 50-47 57zm-97-11c50-1 110 9 110-42 0-47-63-36-110-37v79zm0 115c55-2 124 14 124-45 0-56-70-42-124-44v89" id="Q"/><path fill="#1d262b" d="M30 0v-248h187v28H63v79h144v27H63v87h162V0H30" id="R"/><path fill="#1d262b" d="M233-177c-1 41-23 64-60 70L243 0h-38l-65-103H63V0H30v-248c88 3 205-21 203 71zM63-129c60-2 137 13 137-47 0-61-80-42-137-45v92" id="S"/><g id="g"><use transform="matrix(0.08086419753086417,0,0,0.08086419753086417,0,0)" xlink:href="#O"/><use transform="matrix(0.08086419753086417,0,0,0.08086419753086417,20.94382716049382,0)" xlink:href="#P"/><use transform="matrix(0.08086419753086417,0,0,0.08086419753086417,27.332098765432093,0)" xlink:href="#z"/><use transform="matrix(0.08086419753086417,0,0,0.08086419753086417,33.72037037037036,0)" xlink:href="#y"/><use transform="matrix(0.08086419753086417,0,0,0.08086419753086417,49.893209876543196,0)" xlink:href="#z"/><use transform="matrix(0.08086419753086417,0,0,0.08086419753086417,56.281481481481464,0)" xlink:href="#J"/><use transform="matrix(0.08086419753086417,0,0,0.08086419753086417,70.83703703703702,0)" xlink:href="#B"/><use transform="matrix(0.08086419753086417,0,0,0.08086419753086417,87.00987654320984,0)" xlink:href="#P"/><use transform="matrix(0.08086419753086417,0,0,0.08086419753086417,93.39814814814812,0)" xlink:href="#Q"/><use transform="matrix(0.08086419753086417,0,0,0.08086419753086417,112.80555555555554,0)" xlink:href="#R"/><use transform="matrix(0.08086419753086417,0,0,0.08086419753086417,132.21296296296293,0)" xlink:href="#S"/><use transform="matrix(0.08086419753086417,0,0,0.08086419753086417,152.5907407407407,0)" xlink:href="#u"/></g><g id="h"><use transform="matrix(0.08086419753086417,0,0,0.08086419753086417,0,0)" xlink:href="#G"/><use transform="matrix(0.08086419753086417,0,0,0.08086419753086417,24.178395061728388,0)" xlink:href="#v"/><use transform="matrix(0.08086419753086417,0,0,0.08086419753086417,40.35123456790122,0)" xlink:href="#D"/><use transform="matrix(0.08086419753086417,0,0,0.08086419753086417,56.52407407407406,0)" xlink:href="#x"/><use transform="matrix(0.08086419753086417,0,0,0.08086419753086417,72.6969135802469,0)" xlink:href="#P"/></g><g id="i"><use transform="matrix(0.08086419753086417,0,0,0.08086419753086417,0,0)" xlink:href="#u"/><use transform="matrix(0.08086419753086417,0,0,0.08086419753086417,16.65802469135802,0)" xlink:href="#F"/><use transform="matrix(0.08086419753086417,0,0,0.08086419753086417,26.280864197530857,0)" xlink:href="#B"/><use transform="matrix(0.08086419753086417,0,0,0.08086419753086417,42.45370370370369,0)" xlink:href="#z"/><use transform="matrix(0.08086419753086417,0,0,0.08086419753086417,48.841975308641956,0)" xlink:href="#y"/></g><g id="j"><use transform="matrix(0.08086419753086417,0,0,0.08086419753086417,0,0)" xlink:href="#v"/><use transform="matrix(0.08086419753086417,0,0,0.08086419753086417,16.172839506172835,0)" xlink:href="#y"/></g><g id="k"><use transform="matrix(0.08086419753086417,0,0,0.08086419753086417,0,0)" xlink:href="#C"/><use transform="matrix(0.08086419753086417,0,0,0.08086419753086417,8.086419753086417,0)" xlink:href="#F"/><use transform="matrix(0.08086419753086417,0,0,0.08086419753086417,17.709259259259255,0)" xlink:href="#B"/><use transform="matrix(0.08086419753086417,0,0,0.08086419753086417,33.88209876543209,0)" xlink:href="#z"/><use transform="matrix(0.08086419753086417,0,0,0.08086419753086417,40.27037037037036,0)" xlink:href="#y"/><use transform="matrix(0.08086419753086417,0,0,0.08086419753086417,56.44320987654319,0)" xlink:href="#z"/><use transform="matrix(0.08086419753086417,0,0,0.08086419753086417,62.83148148148146,0)" xlink:href="#y"/><use transform="matrix(0.08086419753086417,0,0,0.08086419753086417,79.0043209876543,0)" xlink:href="#I"/></g><path fill="#1d262b" d="M145-31C134-9 116 4 85 4 32 4 16-35 15-94c0-59 17-99 70-100 32-1 48 14 60 33 0-11-1-24 2-32h30l-1 268h-32zM93-21c41 0 51-33 51-76s-8-73-50-73c-40 0-46 35-46 75s5 74 45 74" id="T"/><path fill="#1d262b" d="M84 4C-5 8 30-112 23-190h32v120c0 31 7 50 39 49 72-2 45-101 50-169h31l1 190h-30c-1-10 1-25-2-33-11 22-28 36-60 37" id="U"/><g id="l"><use transform="matrix(0.08086419753086417,0,0,0.08086419753086417,0,0)" xlink:href="#L"/><use transform="matrix(0.08086419753086417,0,0,0.08086419753086417,14.55555555555555,0)" xlink:href="#x"/><use transform="matrix(0.08086419753086417,0,0,0.08086419753086417,30.728395061728385,0)" xlink:href="#T"/><use transform="matrix(0.08086419753086417,0,0,0.08086419753086417,46.90123456790122,0)" xlink:href="#U"/><use transform="matrix(0.08086419753086417,0,0,0.08086419753086417,63.074074074074055,0)" xlink:href="#x"/><use transform="matrix(0.08086419753086417,0,0,0.08086419753086417,79.24691358024688,0)" xlink:href="#y"/><use transform="matrix(0.08086419753086417,0,0,0.08086419753086417,95.41975308641972,0)" xlink:href="#J"/><use transform="matrix(0.08086419753086417,0,0,0.08086419753086417,109.97530864197526,0)" xlink:href="#x"/><use transform="matrix(0.08086419753086417,0,0,0.08086419753086417,126.14814814814808,0)" xlink:href="#L"/></g><path fill="#1d262b" d="M106-169C34-169 62-67 57 0H25v-261h32l-1 103c12-21 28-36 61-36 89 0 53 116 60 194h-32v-121c2-32-8-49-39-48" id="V"/><g id="m"><use transform="matrix(0.08086419753086417,0,0,0.08086419753086417,0,0)" xlink:href="#E"/><use transform="matrix(0.08086419753086417,0,0,0.08086419753086417,20.94382716049382,0)" xlink:href="#z"/><use transform="matrix(0.08086419753086417,0,0,0.08086419753086417,27.332098765432093,0)" xlink:href="#C"/><use transform="matrix(0.08086419753086417,0,0,0.08086419753086417,35.41851851851851,0)" xlink:href="#V"/></g><path fill="#1d262b" d="M179-190L93 31C79 59 56 82 12 73V49c39 6 53-20 64-50L1-190h34L92-34l54-156h33" id="W"/><g id="n"><use transform="matrix(0.08086419753086417,0,0,0.08086419753086417,0,0)" xlink:href="#Q"/><use transform="matrix(0.08086419753086417,0,0,0.08086419753086417,19.4074074074074,0)" xlink:href="#B"/><use transform="matrix(0.08086419753086417,0,0,0.08086419753086417,35.58024691358024,0)" xlink:href="#W"/><use transform="matrix(0.08086419753086417,0,0,0.08086419753086417,50.13580246913578,0)" xlink:href="#x"/><use transform="matrix(0.08086419753086417,0,0,0.08086419753086417,66.30864197530863,0)" xlink:href="#L"/><use transform="matrix(0.08086419753086417,0,0,0.08086419753086417,80.86419753086417,0)" xlink:href="#z"/><use transform="matrix(0.08086419753086417,0,0,0.08086419753086417,87.25246913580244,0)" xlink:href="#B"/><use transform="matrix(0.08086419753086417,0,0,0.08086419753086417,103.42530864197528,0)" xlink:href="#y"/></g><path fill="#1d262b" d="M115-194c55 1 70 41 70 98S169 2 115 4C84 4 66-9 55-30l1 105H24l-1-265h31l2 30c10-21 28-34 59-34zm-8 174c40 0 45-34 45-75s-6-73-45-74c-42 0-51 32-51 76 0 43 10 73 51 73" id="X"/><g id="o"><use transform="matrix(0.08086419753086417,0,0,0.08086419753086417,0,0)" xlink:href="#V"/><use transform="matrix(0.08086419753086417,0,0,0.08086419753086417,16.172839506172835,0)" xlink:href="#W"/><use transform="matrix(0.08086419753086417,0,0,0.08086419753086417,30.728395061728385,0)" xlink:href="#X"/><use transform="matrix(0.08086419753086417,0,0,0.08086419753086417,46.90123456790122,0)" xlink:href="#x"/><use transform="matrix(0.08086419753086417,0,0,0.08086419753086417,63.074074074074055,0)" xlink:href="#F"/><use transform="matrix(0.08086419753086417,0,0,0.08086419753086417,72.69691358024689,0)" xlink:href="#X"/><use transform="matrix(0.08086419753086417,0,0,0.08086419753086417,88.86975308641972,0)" xlink:href="#B"/><use transform="matrix(0.08086419753086417,0,0,0.08086419753086417,105.04259259259256,0)" xlink:href="#F"/><use transform="matrix(0.08086419753086417,0,0,0.08086419753086417,114.6654320987654,0)" xlink:href="#B"/><use transform="matrix(0.08086419753086417,0,0,0.08086419753086417,130.83827160493823,0)" xlink:href="#G"/><use transform="matrix(0.08086419753086417,0,0,0.08086419753086417,155.01666666666662,0)" xlink:href="#x"/><use transform="matrix(0.08086419753086417,0,0,0.08086419753086417,171.18950617283946,0)" xlink:href="#C"/><use transform="matrix(0.08086419753086417,0,0,0.08086419753086417,179.2759259259259,0)" xlink:href="#x"/><use transform="matrix(0.08086419753086417,0,0,0.08086419753086417,195.44876543209872,0)" xlink:href="#F"/></g><g id="p"><use transform="matrix(0.08086419753086417,0,0,0.08086419753086417,0,0)" xlink:href="#v"/><use transform="matrix(0.08086419753086417,0,0,0.08086419753086417,16.172839506172835,0)" xlink:href="#X"/><use transform="matrix(0.08086419753086417,0,0,0.08086419753086417,32.34567901234567,0)" xlink:href="#C"/><use transform="matrix(0.08086419753086417,0,0,0.08086419753086417,40.43209876543209,0)" xlink:href="#z"/><use transform="matrix(0.08086419753086417,0,0,0.08086419753086417,46.820370370370355,0)" xlink:href="#G"/><use transform="matrix(0.08086419753086417,0,0,0.08086419753086417,70.99876543209874,0)" xlink:href="#z"/><use transform="matrix(0.08086419753086417,0,0,0.08086419753086417,77.387037037037,0)" xlink:href="#A"/><use transform="matrix(0.08086419753086417,0,0,0.08086419753086417,91.94259259259255,0)" xlink:href="#B"/><use transform="matrix(0.08086419753086417,0,0,0.08086419753086417,108.11543209876538,0)" xlink:href="#C"/><use transform="matrix(0.08086419753086417,0,0,0.08086419753086417,116.2018518518518,0)" xlink:href="#z"/><use transform="matrix(0.08086419753086417,0,0,0.08086419753086417,122.59012345679007,0)" xlink:href="#v"/><use transform="matrix(0.08086419753086417,0,0,0.08086419753086417,138.7629629629629,0)" xlink:href="#y"/></g><g id="q"><use transform="matrix(0.08086419753086417,0,0,0.08086419753086417,0,0)" xlink:href="#R"/><use transform="matrix(0.08086419753086417,0,0,0.08086419753086417,19.4074074074074,0)" xlink:href="#K"/><use transform="matrix(0.08086419753086417,0,0,0.08086419753086417,33.96296296296295,0)" xlink:href="#B"/><use transform="matrix(0.08086419753086417,0,0,0.08086419753086417,50.13580246913578,0)" xlink:href="#P"/><use transform="matrix(0.08086419753086417,0,0,0.08086419753086417,56.52407407407404,0)" xlink:href="#U"/><use transform="matrix(0.08086419753086417,0,0,0.08086419753086417,72.69691358024689,0)" xlink:href="#B"/><use transform="matrix(0.08086419753086417,0,0,0.08086419753086417,88.86975308641972,0)" xlink:href="#C"/><use transform="matrix(0.08086419753086417,0,0,0.08086419753086417,96.95617283950614,0)" xlink:href="#x"/></g><g id="r"><use transform="matrix(0.08086419753086417,0,0,0.08086419753086417,0,0)" xlink:href="#V"/><use transform="matrix(0.08086419753086417,0,0,0.08086419753086417,16.172839506172835,0)" xlink:href="#x"/><use transform="matrix(0.08086419753086417,0,0,0.08086419753086417,32.34567901234567,0)" xlink:href="#P"/><use transform="matrix(0.08086419753086417,0,0,0.08086419753086417,38.73395061728394,0)" xlink:href="#D"/><use transform="matrix(0.08086419753086417,0,0,0.08086419753086417,54.90679012345677,0)" xlink:href="#N"/><use transform="matrix(0.08086419753086417,0,0,0.08086419753086417,64.52962962962961,0)" xlink:href="#v"/><use transform="matrix(0.08086419753086417,0,0,0.08086419753086417,80.70246913580245,0)" xlink:href="#U"/><use transform="matrix(0.08086419753086417,0,0,0.08086419753086417,96.87530864197528,0)" xlink:href="#C"/></g><g id="s"><use transform="matrix(0.08086419753086417,0,0,0.08086419753086417,0,0)" xlink:href="#C"/><use transform="matrix(0.08086419753086417,0,0,0.08086419753086417,8.086419753086417,0)" xlink:href="#x"/><use transform="matrix(0.08086419753086417,0,0,0.08086419753086417,24.259259259259252,0)" xlink:href="#L"/><use transform="matrix(0.08086419753086417,0,0,0.08086419753086417,38.8148148148148,0)" xlink:href="#C"/></g><g id="t"><use transform="matrix(0.08086419753086417,0,0,0.08086419753086417,0,0)" xlink:href="#L"/><use transform="matrix(0.08086419753086417,0,0,0.08086419753086417,14.55555555555555,0)" xlink:href="#x"/><use transform="matrix(0.08086419753086417,0,0,0.08086419753086417,30.728395061728385,0)" xlink:href="#C"/></g></defs></g></svg>