<svg xmlns="http://www.w3.org/2000/svg" xmlns:xlink="http://www.w3.org/1999/xlink" xmlns:lucid="lucid" width="2146.85" height="200"><g transform="translate(-220 -680)" lucid:page-tab-id="0_0"><path d="M0 0h2797.3v3514H0z" fill="#fff"/><path d="M795.85 706c0-3.3 2.7-6 6-6h428c3.32 0 6 2.7 6 6v148c0 3.3-2.68 6-6 6h-428c-3.3 0-6-2.7-6-6z" stroke="#4881b3" stroke-width="3" fill="#c1fbe6"/><path d="M815.85 720.7c0-3.3 2.7-6 6-6h388c3.32 0 6 2.7 6 6v118.6c0 3.3-2.68 6-6 6h-388c-3.3 0-6-2.7-6-6z" stroke="#000" stroke-opacity="0" fill="#c1fbe6"/><use xlink:href="#a" transform="matrix(1,0,0,1,820.8534472147003,719.7111940106843) translate(42.36882716049388 31.388888888888893)"/><use xlink:href="#b" transform="matrix(1,0,0,1,820.8534472147003,719.7111940106843) translate(150.56512345679016 31.388888888888893)"/><use xlink:href="#c" transform="matrix(1,0,0,1,820.8534472147003,719.7111940106843) translate(278.16882716049383 31.388888888888893)"/><use xlink:href="#d" transform="matrix(1,0,0,1,820.8534472147003,719.7111940106843) translate(59.02685185185189 66.32222222222222)"/><use xlink:href="#e" transform="matrix(1,0,0,1,820.8534472147003,719.7111940106843) translate(195.44475308641975 66.32222222222222)"/><use xlink:href="#f" transform="matrix(1,0,0,1,820.8534472147003,719.7111940106843) translate(129.8638888888889 101.25555555555553)"/><path d="M240 706c0-3.3 2.7-6 6-6h428c3.3 0 6 2.7 6 6v148c0 3.3-2.7 6-6 6H246c-3.3 0-6-2.7-6-6z" stroke="#4881b3" stroke-width="3" fill="#c1fbe6"/><path d="M260 717.7c0-3.3 2.7-6 6-6h388c3.3 0 6 2.7 6 6v128.17c0 3.3-2.7 6-6 6H266c-3.3 0-6-2.7-6-6z" stroke="#000" stroke-opacity="0" fill="#c1fbe6"/><use xlink:href="#g" transform="matrix(1,0,0,1,265,716.7111940106843) translate(23.446604938271662 71.32222222222222)"/><use xlink:href="#h" transform="matrix(1,0,0,1,265,716.7111940106843) translate(123.31388888888891 71.32222222222222)"/><use xlink:href="#i" transform="matrix(1,0,0,1,265,716.7111940106843) translate(200.21574074074073 71.32222222222222)"/><path d="M1360 706c0-3.3 2.7-6 6-6h428c3.3 0 6 2.7 6 6v148c0 3.3-2.7 6-6 6h-428c-3.3 0-6-2.7-6-6z" stroke="#4881b3" stroke-width="3" fill="#c1fbe6"/><path d="M1372 720.7c0-3.3 2.7-6 6-6h408c3.3 0 6 2.7 6 6v125.9c0 3.32-2.7 6-6 6h-408c-3.3 0-6-2.68-6-6z" stroke="#000" stroke-opacity="0" fill="#c1fbe6"/><use xlink:href="#j" transform="matrix(1,0,0,1,1377,719.7111940106843) translate(30.69722222222225 23.288888888888884)"/><use xlink:href="#k" transform="matrix(1,0,0,1,1377,719.7111940106843) translate(127.57253086419753 23.288888888888884)"/><use xlink:href="#l" transform="matrix(1,0,0,1,1377,719.7111940106843) translate(176.01018518518518 23.288888888888884)"/><use xlink:href="#m" transform="matrix(1,0,0,1,1377,719.7111940106843) translate(235.68796296296296 23.288888888888884)"/><use xlink:href="#n" transform="matrix(1,0,0,1,1377,719.7111940106843) translate(44.32283950617287 58.22222222222221)"/><use xlink:href="#o" transform="matrix(1,0,0,1,1377,719.7111940106843) translate(141.11728395061726 58.22222222222221)"/><use xlink:href="#p" transform="matrix(1,0,0,1,1377,719.7111940106843) translate(292.89938271604933 58.22222222222221)"/><use xlink:href="#q" transform="matrix(1,0,0,1,1377,719.7111940106843) translate(33.45936535493831 95.43090277777776)"/><use xlink:href="#r" transform="matrix(1,0,0,1,1377,719.7111940106843) translate(177.0741801697531 95.43090277777776)"/><use xlink:href="#s" transform="matrix(1,0,0,1,1377,719.7111940106843) translate(304.6778838734568 95.43090277777776)"/><use xlink:href="#t" transform="matrix(1,0,0,1,1377,719.7111940106843) translate(361.2828221450617 95.43090277777776)"/><use xlink:href="#u" transform="matrix(1,0,0,1,1377,719.7111940106843) translate(170.26882716049386 130.36423611111107)"/><path d="M1906.85 706c0-3.3 2.7-6 6-6h428c3.32 0 6 2.7 6 6v148c0 3.3-2.68 6-6 6h-428c-3.3 0-6-2.7-6-6z" stroke="#4881b3" stroke-width="3" fill="#c1fbe6"/><path d="M1916.85 732.6c0-3.3 2.7-6 6-6h408c3.32 0 6 2.7 6 6v94.8c0 3.3-2.68 6-6 6h-408c-3.3 0-6-2.7-6-6z" stroke="#000" stroke-opacity="0" fill="#c1fbe6"/><g><use xlink:href="#v" transform="matrix(1,0,0,1,1921.8534472147003,731.6) translate(20.750925925925998 54.32222222222222)"/><use xlink:href="#w" transform="matrix(1,0,0,1,1921.8534472147003,731.6) translate(141.96635802469137 54.32222222222222)"/><use xlink:href="#x" transform="matrix(1,0,0,1,1921.8534472147003,731.6) translate(182.39845679012348 54.32222222222222)"/><use xlink:href="#y" transform="matrix(1,0,0,1,1921.8534472147003,731.6) translate(295.44660493827155 54.32222222222222)"/><use xlink:href="#z" transform="matrix(1,0,0,1,1921.8534472147003,731.6) translate(350.4342592592592 54.32222222222222)"/></g><path d="M682.5 780h93.35" stroke="#224c72" stroke-width="2" fill="none"/><path d="M682.53 781h-1.03v-2h1.03" fill="#224c72"/><path d="M791.12 780l-14.27 4.64v-9.28z" stroke="#224c72" stroke-width="2" fill="#224c72"/><path d="M1238.35 780H1340" stroke="#224c72" stroke-width="2" fill="none"/><path d="M1238.38 781h-1.03v-2h1.03" fill="#224c72"/><path d="M1355.26 780l-14.26 4.64v-9.28z" stroke="#224c72" stroke-width="2" fill="#224c72"/><path d="M1802.5 780h84.35" stroke="#224c72" stroke-width="2" fill="none"/><path d="M1802.53 781h-1.03v-2h1.03" fill="#224c72"/><path d="M1902.12 780l-14.27 4.64v-9.28z" stroke="#224c72" stroke-width="2" fill="#224c72"/><defs><path fill="#1d262b" d="M63-220v92h138v28H63V0H30v-248h175v28H63" id="A"/><path fill="#1d262b" d="M100-194c63 0 86 42 84 106H49c0 40 14 67 53 68 26 1 43-12 49-29l28 8c-11 28-37 45-77 45C44 4 14-33 15-96c1-61 26-98 85-98zm52 81c6-60-76-77-97-28-3 7-6 17-6 28h103" id="B"/><path fill="#1d262b" d="M141-36C126-15 110 5 73 4 37 3 15-17 15-53c-1-64 63-63 125-63 3-35-9-54-41-54-24 1-41 7-42 31l-33-3c5-37 33-52 76-52 45 0 72 20 72 64v82c-1 20 7 32 28 27v20c-31 9-61-2-59-35zM48-53c0 20 12 33 32 33 41-3 63-29 60-74-43 2-92-5-92 41" id="C"/><path fill="#1d262b" d="M59-47c-2 24 18 29 38 22v24C64 9 27 4 27-40v-127H5v-23h24l9-43h21v43h35v23H59v120" id="D"/><path fill="#1d262b" d="M84 4C-5 8 30-112 23-190h32v120c0 31 7 50 39 49 72-2 45-101 50-169h31l1 190h-30c-1-10 1-25-2-33-11 22-28 36-60 37" id="E"/><path fill="#1d262b" d="M114-163C36-179 61-72 57 0H25l-1-190h30c1 12-1 29 2 39 6-27 23-49 58-41v29" id="F"/><g id="a"><use transform="matrix(0.08086419753086417,0,0,0.08086419753086417,0,0)" xlink:href="#A"/><use transform="matrix(0.08086419753086417,0,0,0.08086419753086417,17.70925925925925,0)" xlink:href="#B"/><use transform="matrix(0.08086419753086417,0,0,0.08086419753086417,33.88209876543209,0)" xlink:href="#C"/><use transform="matrix(0.08086419753086417,0,0,0.08086419753086417,50.054938271604925,0)" xlink:href="#D"/><use transform="matrix(0.08086419753086417,0,0,0.08086419753086417,58.141358024691336,0)" xlink:href="#E"/><use transform="matrix(0.08086419753086417,0,0,0.08086419753086417,74.31419753086418,0)" xlink:href="#F"/><use transform="matrix(0.08086419753086417,0,0,0.08086419753086417,83.93703703703702,0)" xlink:href="#B"/></g><path fill="#1d262b" d="M185-189c-5-48-123-54-124 2 14 75 158 14 163 119 3 78-121 87-175 55-17-10-28-26-33-46l33-7c5 56 141 63 141-1 0-78-155-14-162-118-5-82 145-84 179-34 5 7 8 16 11 25" id="G"/><path fill="#1d262b" d="M24 0v-261h32V0H24" id="H"/><path fill="#1d262b" d="M96-169c-40 0-48 33-48 73s9 75 48 75c24 0 41-14 43-38l32 2c-6 37-31 61-74 61-59 0-76-41-82-99-10-93 101-131 147-64 4 7 5 14 7 22l-32 3c-4-21-16-35-41-35" id="I"/><path fill="#1d262b" d="M24-231v-30h32v30H24zM24 0v-190h32V0H24" id="J"/><path fill="#1d262b" d="M100-194c62-1 85 37 85 99 1 63-27 99-86 99S16-35 15-95c0-66 28-99 85-99zM99-20c44 1 53-31 53-75 0-43-8-75-51-75s-53 32-53 75 10 74 51 75" id="K"/><path fill="#1d262b" d="M117-194c89-4 53 116 60 194h-32v-121c0-31-8-49-39-48C34-167 62-67 57 0H25l-1-190h30c1 10-1 24 2 32 11-22 29-35 61-36" id="L"/><g id="b"><use transform="matrix(0.08086419753086417,0,0,0.08086419753086417,0,0)" xlink:href="#G"/><use transform="matrix(0.08086419753086417,0,0,0.08086419753086417,19.4074074074074,0)" xlink:href="#B"/><use transform="matrix(0.08086419753086417,0,0,0.08086419753086417,35.58024691358024,0)" xlink:href="#H"/><use transform="matrix(0.08086419753086417,0,0,0.08086419753086417,41.96851851851851,0)" xlink:href="#B"/><use transform="matrix(0.08086419753086417,0,0,0.08086419753086417,58.141358024691336,0)" xlink:href="#I"/><use transform="matrix(0.08086419753086417,0,0,0.08086419753086417,72.6969135802469,0)" xlink:href="#D"/><use transform="matrix(0.08086419753086417,0,0,0.08086419753086417,80.78333333333332,0)" xlink:href="#J"/><use transform="matrix(0.08086419753086417,0,0,0.08086419753086417,87.17160493827157,0)" xlink:href="#K"/><use transform="matrix(0.08086419753086417,0,0,0.08086419753086417,103.34444444444443,0)" xlink:href="#L"/></g><path fill="#1d262b" d="M135-143c-3-34-86-38-87 0 15 53 115 12 119 90S17 21 10-45l28-5c4 36 97 45 98 0-10-56-113-15-118-90-4-57 82-63 122-42 12 7 21 19 24 35" id="M"/><path fill="#1d262b" d="M177-190C167-65 218 103 67 71c-23-6-38-20-44-43l32-5c15 47 100 32 89-28v-30C133-14 115 1 83 1 29 1 15-40 15-95c0-56 16-97 71-98 29-1 48 16 59 35 1-10 0-23 2-32h30zM94-22c36 0 50-32 50-73 0-42-14-75-50-75-39 0-46 34-46 75s6 73 46 73" id="N"/><g id="c"><use transform="matrix(0.08086419753086417,0,0,0.08086419753086417,0,0)" xlink:href="#E"/><use transform="matrix(0.08086419753086417,0,0,0.08086419753086417,16.172839506172835,0)" xlink:href="#M"/><use transform="matrix(0.08086419753086417,0,0,0.08086419753086417,30.728395061728385,0)" xlink:href="#J"/><use transform="matrix(0.08086419753086417,0,0,0.08086419753086417,37.11666666666665,0)" xlink:href="#L"/><use transform="matrix(0.08086419753086417,0,0,0.08086419753086417,53.28950617283949,0)" xlink:href="#N"/></g><path fill="#1d262b" d="M30-248c87 1 191-15 191 75 0 78-77 80-158 76V0H30v-248zm33 125c57 0 124 11 124-50 0-59-68-47-124-48v98" id="O"/><path fill="#1d262b" d="M47-170H22l-4-78h33" id="P"/><g id="d"><use transform="matrix(0.08086419753086417,0,0,0.08086419753086417,0,0)" xlink:href="#O"/><use transform="matrix(0.08086419753086417,0,0,0.08086419753086417,19.4074074074074,0)" xlink:href="#B"/><use transform="matrix(0.08086419753086417,0,0,0.08086419753086417,35.58024691358024,0)" xlink:href="#C"/><use transform="matrix(0.08086419753086417,0,0,0.08086419753086417,51.75308641975308,0)" xlink:href="#F"/><use transform="matrix(0.08086419753086417,0,0,0.08086419753086417,61.37592592592591,0)" xlink:href="#M"/><use transform="matrix(0.08086419753086417,0,0,0.08086419753086417,75.93148148148146,0)" xlink:href="#K"/><use transform="matrix(0.08086419753086417,0,0,0.08086419753086417,92.10432098765429,0)" xlink:href="#L"/><use transform="matrix(0.08086419753086417,0,0,0.08086419753086417,108.27716049382713,0)" xlink:href="#P"/><use transform="matrix(0.08086419753086417,0,0,0.08086419753086417,113.77592592592589,0)" xlink:href="#M"/></g><g id="e"><use transform="matrix(0.08086419753086417,0,0,0.08086419753086417,0,0)" xlink:href="#I"/><use transform="matrix(0.08086419753086417,0,0,0.08086419753086417,14.55555555555555,0)" xlink:href="#K"/><use transform="matrix(0.08086419753086417,0,0,0.08086419753086417,30.728395061728385,0)" xlink:href="#F"/><use transform="matrix(0.08086419753086417,0,0,0.08086419753086417,40.35123456790122,0)" xlink:href="#F"/><use transform="matrix(0.08086419753086417,0,0,0.08086419753086417,49.97407407407406,0)" xlink:href="#B"/><use transform="matrix(0.08086419753086417,0,0,0.08086419753086417,66.14691358024689,0)" xlink:href="#H"/><use transform="matrix(0.08086419753086417,0,0,0.08086419753086417,72.53518518518516,0)" xlink:href="#C"/><use transform="matrix(0.08086419753086417,0,0,0.08086419753086417,88.70802469135799,0)" xlink:href="#D"/><use transform="matrix(0.08086419753086417,0,0,0.08086419753086417,96.79444444444441,0)" xlink:href="#J"/><use transform="matrix(0.08086419753086417,0,0,0.08086419753086417,103.18271604938268,0)" xlink:href="#K"/><use transform="matrix(0.08086419753086417,0,0,0.08086419753086417,119.35555555555551,0)" xlink:href="#L"/></g><path fill="#1d262b" d="M101-234c-31-9-42 10-38 44h38v23H63V0H32v-167H5v-23h27c-7-52 17-82 69-68v24" id="Q"/><g id="f"><use transform="matrix(0.08086419753086417,0,0,0.08086419753086417,0,0)" xlink:href="#I"/><use transform="matrix(0.08086419753086417,0,0,0.08086419753086417,14.55555555555555,0)" xlink:href="#K"/><use transform="matrix(0.08086419753086417,0,0,0.08086419753086417,30.728395061728385,0)" xlink:href="#B"/><use transform="matrix(0.08086419753086417,0,0,0.08086419753086417,46.90123456790122,0)" xlink:href="#Q"/><use transform="matrix(0.08086419753086417,0,0,0.08086419753086417,54.421604938271585,0)" xlink:href="#Q"/><use transform="matrix(0.08086419753086417,0,0,0.08086419753086417,62.508024691358,0)" xlink:href="#J"/><use transform="matrix(0.08086419753086417,0,0,0.08086419753086417,68.89629629629627,0)" xlink:href="#I"/><use transform="matrix(0.08086419753086417,0,0,0.08086419753086417,83.4518518518518,0)" xlink:href="#J"/><use transform="matrix(0.08086419753086417,0,0,0.08086419753086417,89.84012345679008,0)" xlink:href="#B"/><use transform="matrix(0.08086419753086417,0,0,0.08086419753086417,106.01296296296292,0)" xlink:href="#L"/><use transform="matrix(0.08086419753086417,0,0,0.08086419753086417,122.18580246913574,0)" xlink:href="#D"/></g><path fill="#1d262b" d="M127-220V0H93v-220H8v-28h204v28h-85" id="R"/><path fill="#1d262b" d="M16-82v-28h88v28H16" id="S"/><path fill="#1d262b" d="M33 0v-248h34V0H33" id="T"/><path fill="#1d262b" d="M30-248c118-7 216 8 213 122C240-48 200 0 122 0H30v-248zM63-27c89 8 146-16 146-99s-60-101-146-95v194" id="U"/><g id="g"><use transform="matrix(0.08086419753086417,0,0,0.08086419753086417,0,0)" xlink:href="#R"/><use transform="matrix(0.08086419753086417,0,0,0.08086419753086417,17.70925925925925,0)" xlink:href="#A"/><use transform="matrix(0.08086419753086417,0,0,0.08086419753086417,35.4185185185185,0)" xlink:href="#S"/><use transform="matrix(0.08086419753086417,0,0,0.08086419753086417,45.04135802469134,0)" xlink:href="#T"/><use transform="matrix(0.08086419753086417,0,0,0.08086419753086417,53.12777777777776,0)" xlink:href="#U"/><use transform="matrix(0.08086419753086417,0,0,0.08086419753086417,74.07160493827158,0)" xlink:href="#A"/></g><path fill="#1d262b" d="M266 0h-40l-56-210L115 0H75L2-248h35L96-30l15-64 43-154h32l59 218 59-218h35" id="V"/><path fill="#1d262b" d="M85-194c31 0 48 13 60 33l-1-100h32l1 261h-30c-2-10 0-23-3-31C134-8 116 4 85 4 32 4 16-35 15-94c0-66 23-100 70-100zm9 24c-40 0-46 34-46 75 0 40 6 74 45 74 42 0 51-32 51-76 0-42-9-74-50-73" id="W"/><g id="h"><use transform="matrix(0.08086419753086417,0,0,0.08086419753086417,0,0)" xlink:href="#V"/><use transform="matrix(0.08086419753086417,0,0,0.08086419753086417,26.846913580246905,0)" xlink:href="#K"/><use transform="matrix(0.08086419753086417,0,0,0.08086419753086417,43.01975308641974,0)" xlink:href="#F"/><use transform="matrix(0.08086419753086417,0,0,0.08086419753086417,52.64259259259258,0)" xlink:href="#W"/></g><path fill="#1d262b" d="M137 0h-34L2-248h35l83 218 83-218h36" id="X"/><path fill="#1d262b" d="M9 0v-24l116-142H16v-24h144v24L44-24h123V0H9" id="Y"/><g id="i"><use transform="matrix(0.08086419753086417,0,0,0.08086419753086417,0,0)" xlink:href="#X"/><use transform="matrix(0.08086419753086417,0,0,0.08086419753086417,17.790123456790116,0)" xlink:href="#B"/><use transform="matrix(0.08086419753086417,0,0,0.08086419753086417,33.96296296296295,0)" xlink:href="#I"/><use transform="matrix(0.08086419753086417,0,0,0.08086419753086417,48.51851851851849,0)" xlink:href="#D"/><use transform="matrix(0.08086419753086417,0,0,0.08086419753086417,56.60493827160492,0)" xlink:href="#K"/><use transform="matrix(0.08086419753086417,0,0,0.08086419753086417,72.77777777777774,0)" xlink:href="#F"/><use transform="matrix(0.08086419753086417,0,0,0.08086419753086417,82.40061728395058,0)" xlink:href="#J"/><use transform="matrix(0.08086419753086417,0,0,0.08086419753086417,88.78888888888883,0)" xlink:href="#Y"/><use transform="matrix(0.08086419753086417,0,0,0.08086419753086417,103.3444444444444,0)" xlink:href="#C"/><use transform="matrix(0.08086419753086417,0,0,0.08086419753086417,119.51728395061724,0)" xlink:href="#D"/><use transform="matrix(0.08086419753086417,0,0,0.08086419753086417,127.60370370370366,0)" xlink:href="#J"/><use transform="matrix(0.08086419753086417,0,0,0.08086419753086417,133.99197530864194,0)" xlink:href="#K"/><use transform="matrix(0.08086419753086417,0,0,0.08086419753086417,150.16481481481478,0)" xlink:href="#L"/></g><path fill="#1d262b" d="M27 0v-27h64v-190l-56 39v-29l58-41h29v221h61V0H27" id="Z"/><path fill="#1d262b" d="M101-251c68 0 85 55 85 127S166 4 100 4C33 4 14-52 14-124c0-73 17-127 87-127zm-1 229c47 0 54-49 54-102s-4-102-53-102c-51 0-55 48-55 102 0 53 5 102 54 102" id="aa"/><g id="j"><use transform="matrix(0.08086419753086417,0,0,0.08086419753086417,0,0)" xlink:href="#Z"/><use transform="matrix(0.08086419753086417,0,0,0.08086419753086417,16.172839506172835,0)" xlink:href="#aa"/><use transform="matrix(0.08086419753086417,0,0,0.08086419753086417,32.34567901234567,0)" xlink:href="#S"/><use transform="matrix(0.08086419753086417,0,0,0.08086419753086417,41.96851851851851,0)" xlink:href="#Q"/><use transform="matrix(0.08086419753086417,0,0,0.08086419753086417,50.054938271604925,0)" xlink:href="#K"/><use transform="matrix(0.08086419753086417,0,0,0.08086419753086417,66.22777777777776,0)" xlink:href="#H"/><use transform="matrix(0.08086419753086417,0,0,0.08086419753086417,72.61604938271603,0)" xlink:href="#W"/></g><path fill="#1d262b" d="M212-179c-10-28-35-45-73-45-59 0-87 40-87 99 0 60 29 101 89 101 43 0 62-24 78-52l27 14C228-24 195 4 139 4 59 4 22-46 18-125c-6-104 99-153 187-111 19 9 31 26 39 46" id="ab"/><g id="k"><use transform="matrix(0.08086419753086417,0,0,0.08086419753086417,0,0)" xlink:href="#ab"/><use transform="matrix(0.08086419753086417,0,0,0.08086419753086417,20.94382716049382,0)" xlink:href="#X"/></g><path fill="#1d262b" d="M206 0h-36l-40-164L89 0H53L-1-190h32L70-26l43-164h34l41 164 42-164h31" id="ac"/><path fill="#1d262b" d="M106-169C34-169 62-67 57 0H25v-261h32l-1 103c12-21 28-36 61-36 89 0 53 116 60 194h-32v-121c2-32-8-49-39-48" id="ad"/><g id="l"><use transform="matrix(0.08086419753086417,0,0,0.08086419753086417,0,0)" xlink:href="#ac"/><use transform="matrix(0.08086419753086417,0,0,0.08086419753086417,20.94382716049382,0)" xlink:href="#J"/><use transform="matrix(0.08086419753086417,0,0,0.08086419753086417,27.332098765432093,0)" xlink:href="#D"/><use transform="matrix(0.08086419753086417,0,0,0.08086419753086417,35.41851851851851,0)" xlink:href="#ad"/></g><g id="m"><use transform="matrix(0.08086419753086417,0,0,0.08086419753086417,0,0)" xlink:href="#F"/><use transform="matrix(0.08086419753086417,0,0,0.08086419753086417,9.622839506172836,0)" xlink:href="#B"/><use transform="matrix(0.08086419753086417,0,0,0.08086419753086417,25.79567901234567,0)" xlink:href="#N"/><use transform="matrix(0.08086419753086417,0,0,0.08086419753086417,41.96851851851851,0)" xlink:href="#E"/><use transform="matrix(0.08086419753086417,0,0,0.08086419753086417,58.141358024691336,0)" xlink:href="#H"/><use transform="matrix(0.08086419753086417,0,0,0.08086419753086417,64.52962962962961,0)" xlink:href="#C"/><use transform="matrix(0.08086419753086417,0,0,0.08086419753086417,80.70246913580245,0)" xlink:href="#F"/><use transform="matrix(0.08086419753086417,0,0,0.08086419753086417,90.32530864197528,0)" xlink:href="#J"/><use transform="matrix(0.08086419753086417,0,0,0.08086419753086417,96.71358024691355,0)" xlink:href="#Y"/><use transform="matrix(0.08086419753086417,0,0,0.08086419753086417,111.2691358024691,0)" xlink:href="#B"/><use transform="matrix(0.08086419753086417,0,0,0.08086419753086417,127.44197530864193,0)" xlink:href="#W"/></g><g id="n"><use transform="matrix(0.08086419753086417,0,0,0.08086419753086417,0,0)" xlink:href="#H"/><use transform="matrix(0.08086419753086417,0,0,0.08086419753086417,6.38827160493827,0)" xlink:href="#K"/><use transform="matrix(0.08086419753086417,0,0,0.08086419753086417,22.561111111111103,0)" xlink:href="#N"/><use transform="matrix(0.08086419753086417,0,0,0.08086419753086417,38.73395061728394,0)" xlink:href="#J"/><use transform="matrix(0.08086419753086417,0,0,0.08086419753086417,45.122222222222206,0)" xlink:href="#M"/><use transform="matrix(0.08086419753086417,0,0,0.08086419753086417,59.677777777777756,0)" xlink:href="#D"/><use transform="matrix(0.08086419753086417,0,0,0.08086419753086417,67.76419753086418,0)" xlink:href="#J"/><use transform="matrix(0.08086419753086417,0,0,0.08086419753086417,74.15246913580245,0)" xlink:href="#I"/></g><path fill="#1d262b" d="M68-38c1 34 0 65-14 84H32c9-13 17-26 17-46H33v-38h35" id="ae"/><g id="o"><use transform="matrix(0.08086419753086417,0,0,0.08086419753086417,0,0)" xlink:href="#F"/><use transform="matrix(0.08086419753086417,0,0,0.08086419753086417,9.622839506172836,0)" xlink:href="#B"/><use transform="matrix(0.08086419753086417,0,0,0.08086419753086417,25.79567901234567,0)" xlink:href="#N"/><use transform="matrix(0.08086419753086417,0,0,0.08086419753086417,41.96851851851851,0)" xlink:href="#F"/><use transform="matrix(0.08086419753086417,0,0,0.08086419753086417,51.59135802469134,0)" xlink:href="#B"/><use transform="matrix(0.08086419753086417,0,0,0.08086419753086417,67.76419753086418,0)" xlink:href="#M"/><use transform="matrix(0.08086419753086417,0,0,0.08086419753086417,82.31975308641972,0)" xlink:href="#M"/><use transform="matrix(0.08086419753086417,0,0,0.08086419753086417,96.87530864197525,0)" xlink:href="#J"/><use transform="matrix(0.08086419753086417,0,0,0.08086419753086417,103.26358024691353,0)" xlink:href="#K"/><use transform="matrix(0.08086419753086417,0,0,0.08086419753086417,119.43641975308635,0)" xlink:href="#L"/><use transform="matrix(0.08086419753086417,0,0,0.08086419753086417,135.6092592592592,0)" xlink:href="#ae"/></g><g id="p"><use transform="matrix(0.08086419753086417,0,0,0.08086419753086417,0,0)" xlink:href="#D"/><use transform="matrix(0.08086419753086417,0,0,0.08086419753086417,8.086419753086417,0)" xlink:href="#E"/><use transform="matrix(0.08086419753086417,0,0,0.08086419753086417,24.259259259259252,0)" xlink:href="#L"/><use transform="matrix(0.08086419753086417,0,0,0.08086419753086417,40.43209876543209,0)" xlink:href="#B"/><use transform="matrix(0.08086419753086417,0,0,0.08086419753086417,56.60493827160492,0)" xlink:href="#W"/></g><g id="q"><use transform="matrix(0.08086419753086417,0,0,0.08086419753086417,0,0)" xlink:href="#I"/><use transform="matrix(0.08086419753086417,0,0,0.08086419753086417,14.55555555555555,0)" xlink:href="#K"/><use transform="matrix(0.08086419753086417,0,0,0.08086419753086417,30.728395061728385,0)" xlink:href="#F"/><use transform="matrix(0.08086419753086417,0,0,0.08086419753086417,40.35123456790122,0)" xlink:href="#F"/><use transform="matrix(0.08086419753086417,0,0,0.08086419753086417,49.97407407407406,0)" xlink:href="#B"/><use transform="matrix(0.08086419753086417,0,0,0.08086419753086417,66.14691358024689,0)" xlink:href="#H"/><use transform="matrix(0.08086419753086417,0,0,0.08086419753086417,72.53518518518516,0)" xlink:href="#C"/><use transform="matrix(0.08086419753086417,0,0,0.08086419753086417,88.70802469135799,0)" xlink:href="#D"/><use transform="matrix(0.08086419753086417,0,0,0.08086419753086417,96.79444444444441,0)" xlink:href="#J"/><use transform="matrix(0.08086419753086417,0,0,0.08086419753086417,103.18271604938268,0)" xlink:href="#K"/><use transform="matrix(0.08086419753086417,0,0,0.08086419753086417,119.35555555555551,0)" xlink:href="#L"/></g><g id="r"><use transform="matrix(0.08086419753086417,0,0,0.08086419753086417,0,0)" xlink:href="#D"/><use transform="matrix(0.08086419753086417,0,0,0.08086419753086417,8.086419753086417,0)" xlink:href="#ad"/><use transform="matrix(0.08086419753086417,0,0,0.08086419753086417,24.259259259259252,0)" xlink:href="#F"/><use transform="matrix(0.08086419753086417,0,0,0.08086419753086417,33.88209876543209,0)" xlink:href="#B"/><use transform="matrix(0.08086419753086417,0,0,0.08086419753086417,50.054938271604925,0)" xlink:href="#M"/><use transform="matrix(0.08086419753086417,0,0,0.08086419753086417,64.61049382716047,0)" xlink:href="#ad"/><use transform="matrix(0.08086419753086417,0,0,0.08086419753086417,80.7833333333333,0)" xlink:href="#K"/><use transform="matrix(0.08086419753086417,0,0,0.08086419753086417,96.95617283950614,0)" xlink:href="#H"/><use transform="matrix(0.08086419753086417,0,0,0.08086419753086417,103.3444444444444,0)" xlink:href="#W"/></g><g id="s"><use transform="matrix(0.08086419753086417,0,0,0.08086419753086417,0,0)" xlink:href="#C"/><use transform="matrix(0.08086419753086417,0,0,0.08086419753086417,16.172839506172835,0)" xlink:href="#L"/><use transform="matrix(0.08086419753086417,0,0,0.08086419753086417,32.34567901234567,0)" xlink:href="#W"/></g><path fill="#1d262b" d="M166-1506c82-23 197-12 253 28 39 28 69 72 93 135L939-234c24 67 54 99 138 87l6 152c-53 20-156 14-194-7-69-37-97-95-130-184L529-779 243 0H37l394-1029-96-235c-29-77-66-112-168-100" id="af"/><use transform="matrix(0.013454861111111108,0,0,0.013454861111111108,0,0)" xlink:href="#af" id="t"/><path fill="#1d262b" d="M108 0H70L1-190h34L89-25l56-165h34" id="ag"/><g id="u"><use transform="matrix(0.08086419753086417,0,0,0.08086419753086417,0,0)" xlink:href="#ag"/><use transform="matrix(0.08086419753086417,0,0,0.08086419753086417,14.55555555555555,0)" xlink:href="#C"/><use transform="matrix(0.08086419753086417,0,0,0.08086419753086417,30.728395061728385,0)" xlink:href="#H"/><use transform="matrix(0.08086419753086417,0,0,0.08086419753086417,37.11666666666665,0)" xlink:href="#E"/><use transform="matrix(0.08086419753086417,0,0,0.08086419753086417,53.28950617283949,0)" xlink:href="#B"/></g><path fill="#1d262b" d="M30 0v-248h187v28H63v79h144v27H63v87h162V0H30" id="ah"/><g id="v"><use transform="matrix(0.08086419753086417,0,0,0.08086419753086417,0,0)" xlink:href="#ah"/><use transform="matrix(0.08086419753086417,0,0,0.08086419753086417,19.4074074074074,0)" xlink:href="#ag"/><use transform="matrix(0.08086419753086417,0,0,0.08086419753086417,33.96296296296295,0)" xlink:href="#C"/><use transform="matrix(0.08086419753086417,0,0,0.08086419753086417,50.13580246913578,0)" xlink:href="#H"/><use transform="matrix(0.08086419753086417,0,0,0.08086419753086417,56.52407407407404,0)" xlink:href="#E"/><use transform="matrix(0.08086419753086417,0,0,0.08086419753086417,72.69691358024689,0)" xlink:href="#C"/><use transform="matrix(0.08086419753086417,0,0,0.08086419753086417,88.86975308641972,0)" xlink:href="#D"/><use transform="matrix(0.08086419753086417,0,0,0.08086419753086417,96.95617283950614,0)" xlink:href="#B"/></g><g id="w"><use transform="matrix(0.08086419753086417,0,0,0.08086419753086417,0,0)" xlink:href="#K"/><use transform="matrix(0.08086419753086417,0,0,0.08086419753086417,16.172839506172835,0)" xlink:href="#L"/></g><g id="x"><use transform="matrix(0.08086419753086417,0,0,0.08086419753086417,0,0)" xlink:href="#ad"/><use transform="matrix(0.08086419753086417,0,0,0.08086419753086417,16.172839506172835,0)" xlink:href="#B"/><use transform="matrix(0.08086419753086417,0,0,0.08086419753086417,32.34567901234567,0)" xlink:href="#H"/><use transform="matrix(0.08086419753086417,0,0,0.08086419753086417,38.73395061728394,0)" xlink:href="#W"/><use transform="matrix(0.08086419753086417,0,0,0.08086419753086417,54.90679012345677,0)" xlink:href="#S"/><use transform="matrix(0.08086419753086417,0,0,0.08086419753086417,64.52962962962961,0)" xlink:href="#K"/><use transform="matrix(0.08086419753086417,0,0,0.08086419753086417,80.70246913580245,0)" xlink:href="#E"/><use transform="matrix(0.08086419753086417,0,0,0.08086419753086417,96.87530864197528,0)" xlink:href="#D"/></g><g id="y"><use transform="matrix(0.08086419753086417,0,0,0.08086419753086417,0,0)" xlink:href="#D"/><use transform="matrix(0.08086419753086417,0,0,0.08086419753086417,8.086419753086417,0)" xlink:href="#B"/><use transform="matrix(0.08086419753086417,0,0,0.08086419753086417,24.259259259259252,0)" xlink:href="#M"/><use transform="matrix(0.08086419753086417,0,0,0.08086419753086417,38.8148148148148,0)" xlink:href="#D"/></g><g id="z"><use transform="matrix(0.08086419753086417,0,0,0.08086419753086417,0,0)" xlink:href="#M"/><use transform="matrix(0.08086419753086417,0,0,0.08086419753086417,14.55555555555555,0)" xlink:href="#B"/><use transform="matrix(0.08086419753086417,0,0,0.08086419753086417,30.728395061728385,0)" xlink:href="#D"/></g></defs></g></svg>