<svg xmlns="http://www.w3.org/2000/svg" xmlns:xlink="http://www.w3.org/1999/xlink" xmlns:lucid="lucid" width="2207.85" height="299.5"><g transform="translate(-185.85344721465685 -231.99999999999997)" lucid:page-tab-id="0_0"><path d="M0 0h2797.3v3514H0z" fill="#fff"/><path d="M1804.06 420h83.5" stroke="#224c72" stroke-width="2" fill="none"/><path d="M1804.1 421h-1.04v-2h1.03" fill="#224c72"/><path d="M1902.82 420l-14.26 4.64v-9.28z" stroke="#224c72" stroke-width="2" fill="#224c72"/><path d="M205.85 258c0-3.3 2.7-6 6-6h508c3.32 0 6 2.7 6 6v64.3c0 3.3-2.68 6-6 6h-508c-3.3 0-6-2.7-6-6z" stroke="#000" stroke-opacity="0" fill="#fff" fill-opacity="0"/><use xlink:href="#a" transform="matrix(1,0,0,1,210.85344721465685,257) translate(4.420370370370449 39.766666666666666)"/><use xlink:href="#b" transform="matrix(1,0,0,1,210.85344721465685,257) translate(216.26851851851853 39.766666666666666)"/><use xlink:href="#c" transform="matrix(1,0,0,1,210.85344721465685,257) translate(349.2611111111111 39.766666666666666)"/><path d="M769 258.6c0-3.3 2.7-6 6-6h481.7c3.32 0 6 2.7 6 6V314c0 3.3-2.68 6-6 6H775c-3.3 0-6-2.7-6-6z" stroke="#000" stroke-opacity="0" fill="#fff" fill-opacity="0"/><use xlink:href="#d" transform="matrix(1,0,0,1,773.9999999999999,257.5999999999767) translate(100.34722222222226 35.266666666666666)"/><path d="M1880 258.6c0-3.3 2.7-6 6-6h481.7c3.32 0 6 2.7 6 6V314c0 3.3-2.68 6-6 6H1886c-3.3 0-6-2.7-6-6z" stroke="#000" stroke-opacity="0" fill="#fff" fill-opacity="0"/><use xlink:href="#e" transform="matrix(1,0,0,1,1884.9999999999998,257.5999999999767) translate(152.35185185185188 35.266666666666666)"/><use xlink:href="#f" transform="matrix(1,0,0,1,1884.9999999999998,257.5999999999767) translate(249.65925925925924 35.266666666666666)"/><path d="M1361.56 346c0-3.3 2.7-6 6-6h428c3.3 0 6 2.7 6 6v148c0 3.3-2.7 6-6 6h-428c-3.3 0-6-2.7-6-6z" stroke="#4881b3" stroke-width="3" fill="#f5fbff"/><path d="M1401.56 363.87c0-3.32 2.7-6 6-6h368c3.3 0 6 2.68 6 6v105.46c0 3.32-2.7 6-6 6h-368c-3.3 0-6-2.68-6-6z" stroke="#000" stroke-opacity="0" fill="#fff" fill-opacity="0"/><use xlink:href="#g" transform="matrix(1,0,0,1,1406.5603416439708,362.8666666666667) translate(5.8342592592593405 42.800000000000004)"/><use xlink:href="#h" transform="matrix(1,0,0,1,1406.5603416439708,362.8666666666667) translate(139.69722222222225 42.800000000000004)"/><use xlink:href="#i" transform="matrix(1,0,0,1,1406.5603416439708,362.8666666666667) translate(72.15401234567904 78.62222222222222)"/><use xlink:href="#j" transform="matrix(1,0,0,1,1406.5603416439708,362.8666666666667) translate(178.81388888888887 78.62222222222222)"/><use xlink:href="#k" transform="matrix(1,0,0,1,1406.5603416439708,362.8666666666667) translate(246.09290123456788 78.62222222222222)"/><path d="M1907.56 346c0-3.3 2.7-6 6-6h428c3.3 0 6 2.7 6 6v148c0 3.3-2.7 6-6 6h-428c-3.3 0-6-2.7-6-6z" stroke="#4881b3" stroke-width="3" fill="#f5fbff"/><path d="M1917.56 372.6c0-3.3 2.7-6 6-6h408c3.3 0 6 2.7 6 6v94.8c0 3.3-2.7 6-6 6h-408c-3.3 0-6-2.7-6-6z" stroke="#000" stroke-opacity="0" fill="#fff" fill-opacity="0"/><use xlink:href="#l" transform="matrix(1,0,0,1,1922.5603416439703,371.6) translate(18.52716049382721 36.85555555555556)"/><use xlink:href="#m" transform="matrix(1,0,0,1,1922.5603416439703,371.6) translate(83.05679012345682 36.85555555555556)"/><use xlink:href="#n" transform="matrix(1,0,0,1,1922.5603416439703,371.6) translate(137.96358024691358 36.85555555555556)"/><use xlink:href="#o" transform="matrix(1,0,0,1,1922.5603416439703,371.6) translate(204.2722222222222 36.85555555555556)"/><use xlink:href="#p" transform="matrix(1,0,0,1,1922.5603416439703,371.6) translate(89.36419753086423 71.78888888888889)"/><use xlink:href="#q" transform="matrix(1,0,0,1,1922.5603416439703,371.6) translate(145.96913580246917 71.78888888888889)"/><use xlink:href="#r" transform="matrix(1,0,0,1,1922.5603416439703,371.6) translate(212.27777777777777 71.78888888888889)"/><use xlink:href="#s" transform="matrix(1,0,0,1,1922.5603416439703,371.6) translate(267.2654320987654 71.78888888888889)"/><path d="M231.7 318.5c0-3.3 2.7-6 6-6h409.47c3.3 0 6 2.7 6 6v156.35c-70.38-27.1-114.22-27.1-140.77-27.1-42.14 0-98.2 27.1-140.35 27.1-26.13 0-70.38 0-140.34-27.1z" stroke="#4881b3" stroke-width="3" fill="#f5fbff"/><path d="M255.12 332.82c0-3.3 2.7-6 6-6H670.6c3.3 0 6 2.7 6 6v156.35c-70.4-27.1-114.23-27.1-140.78-27.1-42.15 0-98.2 27.1-140.35 27.1-26.13 0-70.4 0-140.35-27.1z" stroke="#4881b3" stroke-width="3" fill="#f5fbff"/><path d="M278.54 347.15c0-3.3 2.68-6 6-6H694c3.3 0 6 2.7 6 6V503.5c-70.38-27.1-114.22-27.1-140.77-27.1-42.15 0-98.2 27.1-140.35 27.1-26.13 0-70.38 0-140.34-27.1z" stroke="#4881b3" stroke-width="3" fill="#f5fbff"/><path d="M280 362.9h420v114.8H280z" fill="#fff" fill-opacity="0"/><g><use xlink:href="#t" transform="matrix(1,0,0,1,285,367.9000000000233) translate(3.9055555555555577 23.288888888888884)"/><use xlink:href="#u" transform="matrix(1,0,0,1,285,367.9000000000233) translate(18 23.288888888888884)"/><use xlink:href="#v" transform="matrix(1,0,0,1,285,367.9000000000233) translate(26.086419753086417 23.288888888888884)"/><use xlink:href="#w" transform="matrix(1,0,0,1,285,367.9000000000233) translate(200.51049382716047 23.288888888888884)"/><use xlink:href="#x" transform="matrix(1,0,0,1,285,367.9000000000233) translate(318.16790123456786 23.288888888888884)"/><use xlink:href="#t" transform="matrix(1,0,0,1,285,367.9000000000233) translate(3.9055555555555577 58.22222222222221)"/><use xlink:href="#u" transform="matrix(1,0,0,1,285,367.9000000000233) translate(18 58.22222222222221)"/><use xlink:href="#y" transform="matrix(1,0,0,1,285,367.9000000000233) translate(26.086419753086417 58.22222222222221)"/><use xlink:href="#z" transform="matrix(1,0,0,1,285,367.9000000000233) translate(84.14691358024689 58.22222222222221)"/><use xlink:href="#t" transform="matrix(1,0,0,1,285,367.9000000000233) translate(3.9055555555555577 93.15555555555554)"/><use xlink:href="#u" transform="matrix(1,0,0,1,285,367.9000000000233) translate(18 93.15555555555554)"/><use xlink:href="#A" transform="matrix(1,0,0,1,285,367.9000000000233) translate(26.086419753086417 93.15555555555554)"/></g><path d="M891.67 334.24C894 331.9 898.6 330 901.9 330h257.75c3.3 0 7.9 1.9 10.24 4.24l81.42 81.52c2.34 2.34 2.34 6.14 0 8.48l-81.43 81.52c-2.35 2.34-6.94 4.24-10.25 4.24H901.9c-3.3 0-7.9-1.9-10.23-4.24l-81.43-81.52c-2.34-2.34-2.34-6.14 0-8.48z" stroke="#4881b3" stroke-width="3" fill="#f5fbff"/><g><use xlink:href="#B" transform="matrix(1,0,0,1,811,335) translate(64.82160493827166 55.88888888888889)"/><use xlink:href="#C" transform="matrix(1,0,0,1,811,335) translate(202.12901234567903 55.88888888888889)"/><use xlink:href="#D" transform="matrix(1,0,0,1,811,335) translate(234.4746913580247 55.88888888888889)"/><use xlink:href="#E" transform="matrix(1,0,0,1,811,335) translate(78.608950617284 90.82222222222222)"/><use xlink:href="#F" transform="matrix(1,0,0,1,811,335) translate(219.15092592592595 90.82222222222222)"/><use xlink:href="#G" transform="matrix(1,0,0,1,811,335) translate(337.13179012345677 90.82222222222222)"/><use xlink:href="#H" transform="matrix(1,0,0,1,811,335) translate(45.61635802469141 125.75555555555553)"/><use xlink:href="#I" transform="matrix(1,0,0,1,811,335) translate(271.63179012345677 125.75555555555553)"/></g><path d="M701 420.3h52.36c.08 0 .15-.07.15-.15 0-.08.07-.15.16-.15h34.85" stroke="#224c72" stroke-width="2" fill="none"/><path d="M701.03 421.3H700v-2h1.03" fill="#224c72"/><path d="M803.78 420l-14.27 4.64v-9.28z" stroke="#224c72" stroke-width="2" fill="#224c72"/><path d="M1255.55 420h86" stroke="#224c72" stroke-width="2" fill="none"/><path d="M1255.57 421h-1.16l.2-1.33-.16-.67h1.13" fill="#224c72"/><path d="M1356.82 420l-14.26 4.64v-9.28z" stroke="#224c72" stroke-width="2" fill="#224c72"/><defs><path fill="#1d262b" d="M24 0v-248h195v40H76v63h132v40H76v65h150V0H24" id="J"/><path fill="#1d262b" d="M24 0v-248h52v208h133V0H24" id="K"/><path fill="#1d262b" d="M67-125c0 53 21 87 73 88 37 1 54-22 65-47l45 17C233-25 199 4 140 4 58 4 20-42 15-125 8-235 124-281 211-232c18 10 29 29 36 50l-46 12c-8-25-30-41-62-41-52 0-71 34-72 86" id="L"/><path fill="#1d262b" d="M136-208V0H84v-208H4v-40h212v40h-80" id="M"/><path fill="#1d262b" d="M240-174c0 40-23 61-54 70L253 0h-59l-57-94H76V0H24v-248c93 4 217-23 216 74zM76-134c48-2 112 12 112-38 0-48-66-32-112-35v73" id="N"/><path fill="#1d262b" d="M140-251c80 0 125 45 125 126S219 4 139 4C58 4 15-44 15-125s44-126 125-126zm-1 214c52 0 73-35 73-88 0-50-21-86-72-86-52 0-73 35-73 86s22 88 72 88" id="O"/><path fill="#1d262b" d="M175 0L67-191c6 58 2 128 3 191H24v-248h59L193-55c-6-58-2-129-3-193h46V0h-61" id="P"/><path fill="#1d262b" d="M24 0v-248h52V0H24" id="Q"/><g id="a"><use transform="matrix(0.08703703703703701,0,0,0.08703703703703701,0,0)" xlink:href="#J"/><use transform="matrix(0.08703703703703701,0,0,0.08703703703703701,20.888888888888882,0)" xlink:href="#K"/><use transform="matrix(0.08703703703703701,0,0,0.08703703703703701,39.94999999999999,0)" xlink:href="#J"/><use transform="matrix(0.08703703703703701,0,0,0.08703703703703701,60.83888888888887,0)" xlink:href="#L"/><use transform="matrix(0.08703703703703701,0,0,0.08703703703703701,83.38148148148146,0)" xlink:href="#M"/><use transform="matrix(0.08703703703703701,0,0,0.08703703703703701,102.44259259259256,0)" xlink:href="#N"/><use transform="matrix(0.08703703703703701,0,0,0.08703703703703701,124.98518518518514,0)" xlink:href="#O"/><use transform="matrix(0.08703703703703701,0,0,0.08703703703703701,149.3555555555555,0)" xlink:href="#P"/><use transform="matrix(0.08703703703703701,0,0,0.08703703703703701,171.8981481481481,0)" xlink:href="#Q"/><use transform="matrix(0.08703703703703701,0,0,0.08703703703703701,180.6018518518518,0)" xlink:href="#L"/></g><path fill="#1d262b" d="M186 0v-106H76V0H24v-248h52v99h110v-99h50V0h-50" id="R"/><path fill="#1d262b" d="M199 0l-22-63H83L61 0H9l90-248h61L250 0h-51zm-33-102l-36-108c-10 38-24 72-36 108h72" id="S"/><g id="b"><use transform="matrix(0.08703703703703701,0,0,0.08703703703703701,0,0)" xlink:href="#R"/><use transform="matrix(0.08703703703703701,0,0,0.08703703703703701,22.542592592592584,0)" xlink:href="#J"/><use transform="matrix(0.08703703703703701,0,0,0.08703703703703701,43.43148148148147,0)" xlink:href="#S"/><use transform="matrix(0.08703703703703701,0,0,0.08703703703703701,65.97407407407405,0)" xlink:href="#K"/><use transform="matrix(0.08703703703703701,0,0,0.08703703703703701,82.68518518518516,0)" xlink:href="#M"/><use transform="matrix(0.08703703703703701,0,0,0.08703703703703701,101.74629629629626,0)" xlink:href="#R"/></g><path fill="#1d262b" d="M24-248c120-7 223 5 221 122C244-46 201 0 124 0H24v-248zM76-40c74 7 117-18 117-86 0-67-45-88-117-82v168" id="T"/><path fill="#1d262b" d="M169-182c-1-43-94-46-97-3 18 66 151 10 154 114 3 95-165 93-204 36-6-8-10-19-12-30l50-8c3 46 112 56 116 5-17-69-150-10-154-114-4-87 153-88 188-35 5 8 8 18 10 28" id="U"/><g id="c"><use transform="matrix(0.08703703703703701,0,0,0.08703703703703701,0,0)" xlink:href="#N"/><use transform="matrix(0.08703703703703701,0,0,0.08703703703703701,22.542592592592584,0)" xlink:href="#J"/><use transform="matrix(0.08703703703703701,0,0,0.08703703703703701,43.43148148148147,0)" xlink:href="#L"/><use transform="matrix(0.08703703703703701,0,0,0.08703703703703701,65.97407407407405,0)" xlink:href="#O"/><use transform="matrix(0.08703703703703701,0,0,0.08703703703703701,90.34444444444442,0)" xlink:href="#N"/><use transform="matrix(0.08703703703703701,0,0,0.08703703703703701,112.887037037037,0)" xlink:href="#T"/><use transform="matrix(0.08703703703703701,0,0,0.08703703703703701,135.42962962962957,0)" xlink:href="#U"/></g><path fill="#1d262b" d="M24-248c93 1 206-16 204 79-1 75-69 88-152 82V0H24v-248zm52 121c47 0 100 7 100-41 0-47-54-39-100-39v80" id="V"/><path fill="#1d262b" d="M14-72v-43h91v43H14" id="W"/><path fill="#1d262b" d="M67-125c0 54 23 88 75 88 28 0 53-7 68-21v-34h-60v-39h108v91C232-14 192 4 140 4 58 4 20-42 15-125 8-236 126-280 215-234c19 10 29 26 37 47l-47 15c-11-23-29-39-63-39-53 1-75 33-75 86" id="X"/><g id="d"><use transform="matrix(0.08703703703703701,0,0,0.08703703703703701,0,0)" xlink:href="#V"/><use transform="matrix(0.08703703703703701,0,0,0.08703703703703701,20.888888888888882,0)" xlink:href="#N"/><use transform="matrix(0.08703703703703701,0,0,0.08703703703703701,43.43148148148147,0)" xlink:href="#J"/><use transform="matrix(0.08703703703703701,0,0,0.08703703703703701,64.32037037037036,0)" xlink:href="#W"/><use transform="matrix(0.08703703703703701,0,0,0.08703703703703701,74.67777777777776,0)" xlink:href="#V"/><use transform="matrix(0.08703703703703701,0,0,0.08703703703703701,95.56666666666666,0)" xlink:href="#N"/><use transform="matrix(0.08703703703703701,0,0,0.08703703703703701,118.10925925925925,0)" xlink:href="#O"/><use transform="matrix(0.08703703703703701,0,0,0.08703703703703701,142.47962962962958,0)" xlink:href="#L"/><use transform="matrix(0.08703703703703701,0,0,0.08703703703703701,165.02222222222218,0)" xlink:href="#J"/><use transform="matrix(0.08703703703703701,0,0,0.08703703703703701,185.91111111111104,0)" xlink:href="#U"/><use transform="matrix(0.08703703703703701,0,0,0.08703703703703701,206.79999999999993,0)" xlink:href="#U"/><use transform="matrix(0.08703703703703701,0,0,0.08703703703703701,227.68888888888887,0)" xlink:href="#Q"/><use transform="matrix(0.08703703703703701,0,0,0.08703703703703701,236.3925925925925,0)" xlink:href="#P"/><use transform="matrix(0.08703703703703701,0,0,0.08703703703703701,258.9351851851851,0)" xlink:href="#X"/></g><g id="e"><use transform="matrix(0.08703703703703701,0,0,0.08703703703703701,0,0)" xlink:href="#U"/><use transform="matrix(0.08703703703703701,0,0,0.08703703703703701,20.888888888888882,0)" xlink:href="#V"/><use transform="matrix(0.08703703703703701,0,0,0.08703703703703701,41.777777777777764,0)" xlink:href="#K"/><use transform="matrix(0.08703703703703701,0,0,0.08703703703703701,60.83888888888887,0)" xlink:href="#Q"/><use transform="matrix(0.08703703703703701,0,0,0.08703703703703701,69.54259259259257,0)" xlink:href="#M"/></g><g id="f"><use transform="matrix(0.08703703703703701,0,0,0.08703703703703701,0,0)" xlink:href="#T"/><use transform="matrix(0.08703703703703701,0,0,0.08703703703703701,22.542592592592584,0)" xlink:href="#S"/><use transform="matrix(0.08703703703703701,0,0,0.08703703703703701,42.73518518518517,0)" xlink:href="#M"/><use transform="matrix(0.08703703703703701,0,0,0.08703703703703701,59.446296296296275,0)" xlink:href="#S"/></g><path fill="#1d262b" d="M182 0l-62-99L58 0H3l86-130-79-118h55l55 88 55-88h55l-75 118L237 0h-55" id="Y"/><g id="g"><use transform="matrix(0.08703703703703701,0,0,0.08703703703703701,0,0)" xlink:href="#J"/><use transform="matrix(0.08703703703703701,0,0,0.08703703703703701,20.888888888888882,0)" xlink:href="#Y"/><use transform="matrix(0.08703703703703701,0,0,0.08703703703703701,41.777777777777764,0)" xlink:href="#V"/><use transform="matrix(0.08703703703703701,0,0,0.08703703703703701,62.66666666666665,0)" xlink:href="#J"/><use transform="matrix(0.08703703703703701,0,0,0.08703703703703701,83.55555555555553,0)" xlink:href="#N"/><use transform="matrix(0.08703703703703701,0,0,0.08703703703703701,106.09814814814811,0)" xlink:href="#M"/></g><g id="h"><use transform="matrix(0.08703703703703701,0,0,0.08703703703703701,0,0)" xlink:href="#S"/><use transform="matrix(0.08703703703703701,0,0,0.08703703703703701,22.542592592592584,0)" xlink:href="#P"/><use transform="matrix(0.08703703703703701,0,0,0.08703703703703701,45.08518518518517,0)" xlink:href="#P"/><use transform="matrix(0.08703703703703701,0,0,0.08703703703703701,67.62777777777775,0)" xlink:href="#O"/><use transform="matrix(0.08703703703703701,0,0,0.08703703703703701,91.99814814814812,0)" xlink:href="#M"/><use transform="matrix(0.08703703703703701,0,0,0.08703703703703701,108.70925925925923,0)" xlink:href="#S"/><use transform="matrix(0.08703703703703701,0,0,0.08703703703703701,128.9018518518518,0)" xlink:href="#M"/><use transform="matrix(0.08703703703703701,0,0,0.08703703703703701,147.9629629629629,0)" xlink:href="#Q"/><use transform="matrix(0.08703703703703701,0,0,0.08703703703703701,156.6666666666666,0)" xlink:href="#O"/><use transform="matrix(0.08703703703703701,0,0,0.08703703703703701,181.03703703703695,0)" xlink:href="#P"/><use transform="matrix(0.08703703703703701,0,0,0.08703703703703701,203.57962962962958,0)" xlink:href="#U"/></g><path fill="#1d262b" d="M59-47c-2 24 18 29 38 22v24C64 9 27 4 27-40v-127H5v-23h24l9-43h21v43h35v23H59v120" id="Z"/><path fill="#1d262b" d="M106-169C34-169 62-67 57 0H25v-261h32l-1 103c12-21 28-36 61-36 89 0 53 116 60 194h-32v-121c2-32-8-49-39-48" id="aa"/><path fill="#1d262b" d="M114-163C36-179 61-72 57 0H25l-1-190h30c1 12-1 29 2 39 6-27 23-49 58-41v29" id="ab"/><path fill="#1d262b" d="M100-194c62-1 85 37 85 99 1 63-27 99-86 99S16-35 15-95c0-66 28-99 85-99zM99-20c44 1 53-31 53-75 0-43-8-75-51-75s-53 32-53 75 10 74 51 75" id="ac"/><path fill="#1d262b" d="M84 4C-5 8 30-112 23-190h32v120c0 31 7 50 39 49 72-2 45-101 50-169h31l1 190h-30c-1-10 1-25-2-33-11 22-28 36-60 37" id="ad"/><path fill="#1d262b" d="M177-190C167-65 218 103 67 71c-23-6-38-20-44-43l32-5c15 47 100 32 89-28v-30C133-14 115 1 83 1 29 1 15-40 15-95c0-56 16-97 71-98 29-1 48 16 59 35 1-10 0-23 2-32h30zM94-22c36 0 50-32 50-73 0-42-14-75-50-75-39 0-46 34-46 75s6 73 46 73" id="ae"/><g id="i"><use transform="matrix(0.08086419753086417,0,0,0.08086419753086417,0,0)" xlink:href="#Z"/><use transform="matrix(0.08086419753086417,0,0,0.08086419753086417,8.086419753086417,0)" xlink:href="#aa"/><use transform="matrix(0.08086419753086417,0,0,0.08086419753086417,24.259259259259252,0)" xlink:href="#ab"/><use transform="matrix(0.08086419753086417,0,0,0.08086419753086417,33.88209876543209,0)" xlink:href="#ac"/><use transform="matrix(0.08086419753086417,0,0,0.08086419753086417,50.054938271604925,0)" xlink:href="#ad"/><use transform="matrix(0.08086419753086417,0,0,0.08086419753086417,66.22777777777776,0)" xlink:href="#ae"/><use transform="matrix(0.08086419753086417,0,0,0.08086419753086417,82.4006172839506,0)" xlink:href="#aa"/></g><path fill="#1d262b" d="M266 0h-40l-56-210L115 0H75L2-248h35L96-30l15-64 43-154h32l59 218 59-218h35" id="af"/><path fill="#1d262b" d="M100-194c63 0 86 42 84 106H49c0 40 14 67 53 68 26 1 43-12 49-29l28 8c-11 28-37 45-77 45C44 4 14-33 15-96c1-61 26-98 85-98zm52 81c6-60-76-77-97-28-3 7-6 17-6 28h103" id="ag"/><path fill="#1d262b" d="M115-194c53 0 69 39 70 98 0 66-23 100-70 100C84 3 66-7 56-30L54 0H23l1-261h32v101c10-23 28-34 59-34zm-8 174c40 0 45-34 45-75 0-40-5-75-45-74-42 0-51 32-51 76 0 43 10 73 51 73" id="ah"/><g id="j"><use transform="matrix(0.08086419753086417,0,0,0.08086419753086417,0,0)" xlink:href="#af"/><use transform="matrix(0.08086419753086417,0,0,0.08086419753086417,26.846913580246905,0)" xlink:href="#ag"/><use transform="matrix(0.08086419753086417,0,0,0.08086419753086417,43.01975308641974,0)" xlink:href="#ah"/></g><path fill="#1d262b" d="M205 0l-28-72H64L36 0H1l101-248h38L239 0h-34zm-38-99l-47-123c-12 45-31 82-46 123h93" id="ai"/><path fill="#1d262b" d="M115-194c55 1 70 41 70 98S169 2 115 4C84 4 66-9 55-30l1 105H24l-1-265h31l2 30c10-21 28-34 59-34zm-8 174c40 0 45-34 45-75s-6-73-45-74c-42 0-51 32-51 76 0 43 10 73 51 73" id="aj"/><g id="k"><use transform="matrix(0.08086419753086417,0,0,0.08086419753086417,0,0)" xlink:href="#ai"/><use transform="matrix(0.08086419753086417,0,0,0.08086419753086417,19.4074074074074,0)" xlink:href="#aj"/><use transform="matrix(0.08086419753086417,0,0,0.08086419753086417,35.58024691358024,0)" xlink:href="#aj"/></g><path fill="#1d262b" d="M185-189c-5-48-123-54-124 2 14 75 158 14 163 119 3 78-121 87-175 55-17-10-28-26-33-46l33-7c5 56 141 63 141-1 0-78-155-14-162-118-5-82 145-84 179-34 5 7 8 16 11 25" id="ak"/><path fill="#1d262b" d="M24 0v-261h32V0H24" id="al"/><path fill="#1d262b" d="M24-231v-30h32v30H24zM24 0v-190h32V0H24" id="am"/><g id="l"><use transform="matrix(0.08086419753086417,0,0,0.08086419753086417,0,0)" xlink:href="#ak"/><use transform="matrix(0.08086419753086417,0,0,0.08086419753086417,19.4074074074074,0)" xlink:href="#aj"/><use transform="matrix(0.08086419753086417,0,0,0.08086419753086417,35.58024691358024,0)" xlink:href="#al"/><use transform="matrix(0.08086419753086417,0,0,0.08086419753086417,41.96851851851851,0)" xlink:href="#am"/><use transform="matrix(0.08086419753086417,0,0,0.08086419753086417,48.356790123456776,0)" xlink:href="#Z"/></g><path fill="#1d262b" d="M117-194c89-4 53 116 60 194h-32v-121c0-31-8-49-39-48C34-167 62-67 57 0H25l-1-190h30c1 10-1 24 2 32 11-22 29-35 61-36" id="an"/><g id="m"><use transform="matrix(0.08086419753086417,0,0,0.08086419753086417,0,0)" xlink:href="#am"/><use transform="matrix(0.08086419753086417,0,0,0.08086419753086417,6.38827160493827,0)" xlink:href="#an"/><use transform="matrix(0.08086419753086417,0,0,0.08086419753086417,22.561111111111103,0)" xlink:href="#Z"/><use transform="matrix(0.08086419753086417,0,0,0.08086419753086417,30.64753086419752,0)" xlink:href="#ac"/></g><path fill="#1d262b" d="M99-251c64 0 84 50 84 122C183-37 130 33 47-8c-14-7-20-23-25-40l30-5c6 39 69 39 84 7 9-19 16-44 16-74-10 22-31 35-62 35-49 0-73-33-73-83 0-54 28-83 82-83zm-1 141c31-1 51-18 51-49 0-36-14-67-51-67-34 0-49 23-49 58 0 34 15 58 49 58" id="ao"/><path fill="#1d262b" d="M101-251c68 0 85 55 85 127S166 4 100 4C33 4 14-52 14-124c0-73 17-127 87-127zm-1 229c47 0 54-49 54-102s-4-102-53-102c-51 0-55 48-55 102 0 53 5 102 54 102" id="ap"/><path fill="#1d262b" d="M252-156c43 0 55 33 55 80 0 46-13 78-56 78-42 0-55-33-55-78 0-48 12-80 56-80zM93 0H65l162-248h28zM13-171c-1-47 13-79 56-79s55 33 55 79-13 79-55 79c-43 0-56-33-56-79zM251-17c28 0 30-29 30-59 0-31-1-60-29-60-29 0-31 29-31 60 0 29 2 59 30 59zM69-112c27 0 28-30 29-59 0-31-1-60-29-60-29 0-30 30-30 60s2 59 30 59" id="aq"/><g id="n"><use transform="matrix(0.08086419753086417,0,0,0.08086419753086417,0,0)" xlink:href="#ao"/><use transform="matrix(0.08086419753086417,0,0,0.08086419753086417,16.172839506172835,0)" xlink:href="#ap"/><use transform="matrix(0.08086419753086417,0,0,0.08086419753086417,32.34567901234567,0)" xlink:href="#aq"/></g><path fill="#1d262b" d="M141-36C126-15 110 5 73 4 37 3 15-17 15-53c-1-64 63-63 125-63 3-35-9-54-41-54-24 1-41 7-42 31l-33-3c5-37 33-52 76-52 45 0 72 20 72 64v82c-1 20 7 32 28 27v20c-31 9-61-2-59-35zM48-53c0 20 12 33 32 33 41-3 63-29 60-74-43 2-92-5-92 41" id="ar"/><path fill="#1d262b" d="M0 4l72-265h28L28 4H0" id="as"/><path fill="#1d262b" d="M108 0H70L1-190h34L89-25l56-165h34" id="at"/><path fill="#1d262b" d="M85-194c31 0 48 13 60 33l-1-100h32l1 261h-30c-2-10 0-23-3-31C134-8 116 4 85 4 32 4 16-35 15-94c0-66 23-100 70-100zm9 24c-40 0-46 34-46 75 0 40 6 74 45 74 42 0 51-32 51-76 0-42-9-74-50-73" id="au"/><g id="o"><use transform="matrix(0.08086419753086417,0,0,0.08086419753086417,0,0)" xlink:href="#Z"/><use transform="matrix(0.08086419753086417,0,0,0.08086419753086417,8.086419753086417,0)" xlink:href="#ab"/><use transform="matrix(0.08086419753086417,0,0,0.08086419753086417,17.709259259259255,0)" xlink:href="#ar"/><use transform="matrix(0.08086419753086417,0,0,0.08086419753086417,33.88209876543209,0)" xlink:href="#am"/><use transform="matrix(0.08086419753086417,0,0,0.08086419753086417,40.27037037037036,0)" xlink:href="#an"/><use transform="matrix(0.08086419753086417,0,0,0.08086419753086417,56.44320987654319,0)" xlink:href="#as"/><use transform="matrix(0.08086419753086417,0,0,0.08086419753086417,64.52962962962961,0)" xlink:href="#at"/><use transform="matrix(0.08086419753086417,0,0,0.08086419753086417,79.08518518518517,0)" xlink:href="#ar"/><use transform="matrix(0.08086419753086417,0,0,0.08086419753086417,95.25802469135802,0)" xlink:href="#al"/><use transform="matrix(0.08086419753086417,0,0,0.08086419753086417,101.64629629629626,0)" xlink:href="#am"/><use transform="matrix(0.08086419753086417,0,0,0.08086419753086417,108.03456790123454,0)" xlink:href="#au"/><use transform="matrix(0.08086419753086417,0,0,0.08086419753086417,124.20740740740737,0)" xlink:href="#ar"/><use transform="matrix(0.08086419753086417,0,0,0.08086419753086417,140.3802469135802,0)" xlink:href="#Z"/><use transform="matrix(0.08086419753086417,0,0,0.08086419753086417,148.46666666666664,0)" xlink:href="#am"/><use transform="matrix(0.08086419753086417,0,0,0.08086419753086417,154.8549382716049,0)" xlink:href="#ac"/><use transform="matrix(0.08086419753086417,0,0,0.08086419753086417,171.02777777777777,0)" xlink:href="#an"/></g><g id="p"><use transform="matrix(0.08086419753086417,0,0,0.08086419753086417,0,0)" xlink:href="#ar"/><use transform="matrix(0.08086419753086417,0,0,0.08086419753086417,16.172839506172835,0)" xlink:href="#an"/><use transform="matrix(0.08086419753086417,0,0,0.08086419753086417,32.34567901234567,0)" xlink:href="#au"/></g><path fill="#1d262b" d="M27 0v-27h64v-190l-56 39v-29l58-41h29v221h61V0H27" id="av"/><g id="q"><use transform="matrix(0.08086419753086417,0,0,0.08086419753086417,0,0)" xlink:href="#av"/><use transform="matrix(0.08086419753086417,0,0,0.08086419753086417,16.172839506172835,0)" xlink:href="#ap"/><use transform="matrix(0.08086419753086417,0,0,0.08086419753086417,32.34567901234567,0)" xlink:href="#aq"/></g><path fill="#1d262b" d="M135-143c-3-34-86-38-87 0 15 53 115 12 119 90S17 21 10-45l28-5c4 36 97 45 98 0-10-56-113-15-118-90-4-57 82-63 122-42 12 7 21 19 24 35" id="aw"/><g id="r"><use transform="matrix(0.08086419753086417,0,0,0.08086419753086417,0,0)" xlink:href="#Z"/><use transform="matrix(0.08086419753086417,0,0,0.08086419753086417,8.086419753086417,0)" xlink:href="#ag"/><use transform="matrix(0.08086419753086417,0,0,0.08086419753086417,24.259259259259252,0)" xlink:href="#aw"/><use transform="matrix(0.08086419753086417,0,0,0.08086419753086417,38.8148148148148,0)" xlink:href="#Z"/></g><g id="s"><use transform="matrix(0.08086419753086417,0,0,0.08086419753086417,0,0)" xlink:href="#aw"/><use transform="matrix(0.08086419753086417,0,0,0.08086419753086417,14.55555555555555,0)" xlink:href="#ag"/><use transform="matrix(0.08086419753086417,0,0,0.08086419753086417,30.728395061728385,0)" xlink:href="#Z"/><use transform="matrix(0.08086419753086417,0,0,0.08086419753086417,38.8148148148148,0)" xlink:href="#aw"/></g><path fill="#1d262b" d="M62-168c30 0 50 19 50 48S92-70 62-70c-29 0-48-21-48-50s20-48 48-48" id="ax"/><use transform="matrix(0.08086419753086417,0,0,0.08086419753086417,0,0)" xlink:href="#ax" id="t"/><path fill="#1d262b" d="M232-93c-1 65-40 97-104 97C67 4 28-28 28-90v-158h33c8 89-33 224 67 224 102 0 64-133 71-224h33v155" id="ay"/><path fill="#1d262b" d="M96-169c-40 0-48 33-48 73s9 75 48 75c24 0 41-14 43-38l32 2c-6 37-31 61-74 61-59 0-76-41-82-99-10-93 101-131 147-64 4 7 5 14 7 22l-32 3c-4-21-16-35-41-35" id="az"/><g id="v"><use transform="matrix(0.08086419753086417,0,0,0.08086419753086417,0,0)" xlink:href="#ay"/><use transform="matrix(0.08086419753086417,0,0,0.08086419753086417,20.94382716049382,0)" xlink:href="#an"/><use transform="matrix(0.08086419753086417,0,0,0.08086419753086417,37.11666666666666,0)" xlink:href="#aw"/><use transform="matrix(0.08086419753086417,0,0,0.08086419753086417,51.67222222222222,0)" xlink:href="#Z"/><use transform="matrix(0.08086419753086417,0,0,0.08086419753086417,59.758641975308635,0)" xlink:href="#ab"/><use transform="matrix(0.08086419753086417,0,0,0.08086419753086417,69.38148148148146,0)" xlink:href="#ad"/><use transform="matrix(0.08086419753086417,0,0,0.08086419753086417,85.5543209876543,0)" xlink:href="#az"/><use transform="matrix(0.08086419753086417,0,0,0.08086419753086417,100.10987654320985,0)" xlink:href="#Z"/><use transform="matrix(0.08086419753086417,0,0,0.08086419753086417,108.19629629629625,0)" xlink:href="#ad"/><use transform="matrix(0.08086419753086417,0,0,0.08086419753086417,124.36913580246909,0)" xlink:href="#ab"/><use transform="matrix(0.08086419753086417,0,0,0.08086419753086417,133.99197530864194,0)" xlink:href="#ag"/><use transform="matrix(0.08086419753086417,0,0,0.08086419753086417,150.16481481481478,0)" xlink:href="#au"/></g><path fill="#1d262b" d="M212-179c-10-28-35-45-73-45-59 0-87 40-87 99 0 60 29 101 89 101 43 0 62-24 78-52l27 14C228-24 195 4 139 4 59 4 22-46 18-125c-6-104 99-153 187-111 19 9 31 26 39 46" id="aA"/><g id="w"><use transform="matrix(0.08086419753086417,0,0,0.08086419753086417,0,0)" xlink:href="#aA"/><use transform="matrix(0.08086419753086417,0,0,0.08086419753086417,20.94382716049382,0)" xlink:href="#al"/><use transform="matrix(0.08086419753086417,0,0,0.08086419753086417,27.332098765432093,0)" xlink:href="#am"/><use transform="matrix(0.08086419753086417,0,0,0.08086419753086417,33.72037037037036,0)" xlink:href="#an"/><use transform="matrix(0.08086419753086417,0,0,0.08086419753086417,49.893209876543196,0)" xlink:href="#am"/><use transform="matrix(0.08086419753086417,0,0,0.08086419753086417,56.281481481481464,0)" xlink:href="#az"/><use transform="matrix(0.08086419753086417,0,0,0.08086419753086417,70.83703703703702,0)" xlink:href="#am"/><use transform="matrix(0.08086419753086417,0,0,0.08086419753086417,77.22530864197529,0)" xlink:href="#ar"/><use transform="matrix(0.08086419753086417,0,0,0.08086419753086417,93.39814814814812,0)" xlink:href="#an"/></g><path fill="#1d262b" d="M190 0L58-211 59 0H30v-248h39L202-35l-2-213h31V0h-41" id="aB"/><g id="x"><use transform="matrix(0.08086419753086417,0,0,0.08086419753086417,0,0)" xlink:href="#aB"/><use transform="matrix(0.08086419753086417,0,0,0.08086419753086417,20.94382716049382,0)" xlink:href="#ac"/><use transform="matrix(0.08086419753086417,0,0,0.08086419753086417,37.11666666666666,0)" xlink:href="#Z"/><use transform="matrix(0.08086419753086417,0,0,0.08086419753086417,45.20308641975308,0)" xlink:href="#ag"/><use transform="matrix(0.08086419753086417,0,0,0.08086419753086417,61.37592592592591,0)" xlink:href="#aw"/></g><path fill="#1d262b" d="M33 0v-248h34V0H33" id="aC"/><path fill="#1d262b" d="M30-248c118-7 216 8 213 122C240-48 200 0 122 0H30v-248zM63-27c89 8 146-16 146-99s-60-101-146-95v194" id="aD"/><g id="y"><use transform="matrix(0.08086419753086417,0,0,0.08086419753086417,0,0)" xlink:href="#aC"/><use transform="matrix(0.08086419753086417,0,0,0.08086419753086417,8.086419753086417,0)" xlink:href="#aA"/><use transform="matrix(0.08086419753086417,0,0,0.08086419753086417,29.03024691358024,0)" xlink:href="#aD"/></g><g id="z"><use transform="matrix(0.08086419753086417,0,0,0.08086419753086417,0,0)" xlink:href="#aA"/><use transform="matrix(0.08086419753086417,0,0,0.08086419753086417,20.94382716049382,0)" xlink:href="#ac"/><use transform="matrix(0.08086419753086417,0,0,0.08086419753086417,37.11666666666666,0)" xlink:href="#au"/><use transform="matrix(0.08086419753086417,0,0,0.08086419753086417,53.289506172839495,0)" xlink:href="#ag"/><use transform="matrix(0.08086419753086417,0,0,0.08086419753086417,69.46234567901233,0)" xlink:href="#aw"/></g><path fill="#1d262b" d="M240 0l2-218c-23 76-54 145-80 218h-23L58-218 59 0H30v-248h44l77 211c21-75 51-140 76-211h43V0h-30" id="aE"/><g id="A"><use transform="matrix(0.08086419753086417,0,0,0.08086419753086417,0,0)" xlink:href="#aE"/><use transform="matrix(0.08086419753086417,0,0,0.08086419753086417,24.178395061728388,0)" xlink:href="#ag"/><use transform="matrix(0.08086419753086417,0,0,0.08086419753086417,40.35123456790122,0)" xlink:href="#au"/><use transform="matrix(0.08086419753086417,0,0,0.08086419753086417,56.52407407407406,0)" xlink:href="#am"/><use transform="matrix(0.08086419753086417,0,0,0.08086419753086417,62.912345679012326,0)" xlink:href="#az"/><use transform="matrix(0.08086419753086417,0,0,0.08086419753086417,77.46790123456788,0)" xlink:href="#ar"/><use transform="matrix(0.08086419753086417,0,0,0.08086419753086417,93.64074074074071,0)" xlink:href="#Z"/><use transform="matrix(0.08086419753086417,0,0,0.08086419753086417,101.72716049382713,0)" xlink:href="#am"/><use transform="matrix(0.08086419753086417,0,0,0.08086419753086417,108.1154320987654,0)" xlink:href="#ac"/><use transform="matrix(0.08086419753086417,0,0,0.08086419753086417,124.28827160493823,0)" xlink:href="#an"/><use transform="matrix(0.08086419753086417,0,0,0.08086419753086417,140.46111111111105,0)" xlink:href="#aw"/></g><path fill="#1d262b" d="M30 0v-248h187v28H63v79h144v27H63v87h162V0H30" id="aF"/><path fill="#1d262b" d="M141 0L90-78 38 0H4l68-98-65-92h35l48 74 47-74h35l-64 92 68 98h-35" id="aG"/><g id="B"><use transform="matrix(0.08086419753086417,0,0,0.08086419753086417,0,0)" xlink:href="#aF"/><use transform="matrix(0.08086419753086417,0,0,0.08086419753086417,19.4074074074074,0)" xlink:href="#aG"/><use transform="matrix(0.08086419753086417,0,0,0.08086419753086417,33.96296296296295,0)" xlink:href="#Z"/><use transform="matrix(0.08086419753086417,0,0,0.08086419753086417,42.04938271604937,0)" xlink:href="#ab"/><use transform="matrix(0.08086419753086417,0,0,0.08086419753086417,51.6722222222222,0)" xlink:href="#ar"/><use transform="matrix(0.08086419753086417,0,0,0.08086419753086417,67.84506172839504,0)" xlink:href="#az"/><use transform="matrix(0.08086419753086417,0,0,0.08086419753086417,82.4006172839506,0)" xlink:href="#Z"/><use transform="matrix(0.08086419753086417,0,0,0.08086419753086417,90.48703703703701,0)" xlink:href="#am"/><use transform="matrix(0.08086419753086417,0,0,0.08086419753086417,96.87530864197528,0)" xlink:href="#ac"/><use transform="matrix(0.08086419753086417,0,0,0.08086419753086417,113.04814814814812,0)" xlink:href="#an"/></g><path fill="#1d262b" d="M101-234c-31-9-42 10-38 44h38v23H63V0H32v-167H5v-23h27c-7-52 17-82 69-68v24" id="aH"/><g id="C"><use transform="matrix(0.08086419753086417,0,0,0.08086419753086417,0,0)" xlink:href="#ac"/><use transform="matrix(0.08086419753086417,0,0,0.08086419753086417,16.172839506172835,0)" xlink:href="#aH"/></g><path fill="#1d262b" d="M145-31C134-9 116 4 85 4 32 4 16-35 15-94c0-59 17-99 70-100 32-1 48 14 60 33 0-11-1-24 2-32h30l-1 268h-32zM93-21c41 0 51-33 51-76s-8-73-50-73c-40 0-46 35-46 75s5 74 45 74" id="aI"/><g id="D"><use transform="matrix(0.08086419753086417,0,0,0.08086419753086417,0,0)" xlink:href="#aw"/><use transform="matrix(0.08086419753086417,0,0,0.08086419753086417,14.55555555555555,0)" xlink:href="#ag"/><use transform="matrix(0.08086419753086417,0,0,0.08086419753086417,30.728395061728385,0)" xlink:href="#aI"/><use transform="matrix(0.08086419753086417,0,0,0.08086419753086417,46.90123456790122,0)" xlink:href="#ad"/><use transform="matrix(0.08086419753086417,0,0,0.08086419753086417,63.074074074074055,0)" xlink:href="#ag"/><use transform="matrix(0.08086419753086417,0,0,0.08086419753086417,79.24691358024688,0)" xlink:href="#an"/><use transform="matrix(0.08086419753086417,0,0,0.08086419753086417,95.41975308641972,0)" xlink:href="#az"/><use transform="matrix(0.08086419753086417,0,0,0.08086419753086417,109.97530864197526,0)" xlink:href="#ag"/><use transform="matrix(0.08086419753086417,0,0,0.08086419753086417,126.14814814814808,0)" xlink:href="#aw"/></g><g id="E"><use transform="matrix(0.08086419753086417,0,0,0.08086419753086417,0,0)" xlink:href="#az"/><use transform="matrix(0.08086419753086417,0,0,0.08086419753086417,14.55555555555555,0)" xlink:href="#ac"/><use transform="matrix(0.08086419753086417,0,0,0.08086419753086417,30.728395061728385,0)" xlink:href="#an"/><use transform="matrix(0.08086419753086417,0,0,0.08086419753086417,46.90123456790122,0)" xlink:href="#Z"/><use transform="matrix(0.08086419753086417,0,0,0.08086419753086417,54.98765432098764,0)" xlink:href="#ar"/><use transform="matrix(0.08086419753086417,0,0,0.08086419753086417,71.16049382716048,0)" xlink:href="#am"/><use transform="matrix(0.08086419753086417,0,0,0.08086419753086417,77.54876543209875,0)" xlink:href="#an"/><use transform="matrix(0.08086419753086417,0,0,0.08086419753086417,93.72160493827157,0)" xlink:href="#am"/><use transform="matrix(0.08086419753086417,0,0,0.08086419753086417,100.10987654320985,0)" xlink:href="#an"/><use transform="matrix(0.08086419753086417,0,0,0.08086419753086417,116.28271604938267,0)" xlink:href="#ae"/></g><path fill="#1d262b" d="M210-169c-67 3-38 105-44 169h-31v-121c0-29-5-50-35-48C34-165 62-65 56 0H25l-1-190h30c1 10-1 24 2 32 10-44 99-50 107 0 11-21 27-35 58-36 85-2 47 119 55 194h-31v-121c0-29-5-49-35-48" id="aJ"/><g id="F"><use transform="matrix(0.08086419753086417,0,0,0.08086419753086417,0,0)" xlink:href="#aJ"/><use transform="matrix(0.08086419753086417,0,0,0.08086419753086417,24.178395061728388,0)" xlink:href="#ar"/><use transform="matrix(0.08086419753086417,0,0,0.08086419753086417,40.35123456790122,0)" xlink:href="#Z"/><use transform="matrix(0.08086419753086417,0,0,0.08086419753086417,48.43765432098764,0)" xlink:href="#az"/><use transform="matrix(0.08086419753086417,0,0,0.08086419753086417,62.99320987654319,0)" xlink:href="#aa"/><use transform="matrix(0.08086419753086417,0,0,0.08086419753086417,79.16604938271603,0)" xlink:href="#ag"/><use transform="matrix(0.08086419753086417,0,0,0.08086419753086417,95.33888888888886,0)" xlink:href="#aw"/></g><g id="G"><use transform="matrix(0.08086419753086417,0,0,0.08086419753086417,0,0)" xlink:href="#Z"/><use transform="matrix(0.08086419753086417,0,0,0.08086419753086417,8.086419753086417,0)" xlink:href="#ac"/></g><path fill="#1d262b" d="M16-82v-28h88v28H16" id="aK"/><g id="H"><use transform="matrix(0.08086419753086417,0,0,0.08086419753086417,0,0)" xlink:href="#au"/><use transform="matrix(0.08086419753086417,0,0,0.08086419753086417,16.172839506172835,0)" xlink:href="#ag"/><use transform="matrix(0.08086419753086417,0,0,0.08086419753086417,32.34567901234567,0)" xlink:href="#aJ"/><use transform="matrix(0.08086419753086417,0,0,0.08086419753086417,56.52407407407406,0)" xlink:href="#ag"/><use transform="matrix(0.08086419753086417,0,0,0.08086419753086417,72.6969135802469,0)" xlink:href="#an"/><use transform="matrix(0.08086419753086417,0,0,0.08086419753086417,88.86975308641975,0)" xlink:href="#Z"/><use transform="matrix(0.08086419753086417,0,0,0.08086419753086417,96.95617283950615,0)" xlink:href="#am"/><use transform="matrix(0.08086419753086417,0,0,0.08086419753086417,103.34444444444443,0)" xlink:href="#ar"/><use transform="matrix(0.08086419753086417,0,0,0.08086419753086417,119.51728395061727,0)" xlink:href="#aK"/><use transform="matrix(0.08086419753086417,0,0,0.08086419753086417,129.1401234567901,0)" xlink:href="#ab"/><use transform="matrix(0.08086419753086417,0,0,0.08086419753086417,138.76296296296292,0)" xlink:href="#ag"/><use transform="matrix(0.08086419753086417,0,0,0.08086419753086417,154.93580246913575,0)" xlink:href="#al"/><use transform="matrix(0.08086419753086417,0,0,0.08086419753086417,161.32407407407402,0)" xlink:href="#ar"/><use transform="matrix(0.08086419753086417,0,0,0.08086419753086417,177.49691358024685,0)" xlink:href="#Z"/><use transform="matrix(0.08086419753086417,0,0,0.08086419753086417,185.5833333333333,0)" xlink:href="#ag"/><use transform="matrix(0.08086419753086417,0,0,0.08086419753086417,201.7561728395061,0)" xlink:href="#au"/></g><path fill="#1d262b" d="M143 0L79-87 56-68V0H24v-261h32v163l83-92h37l-77 82L181 0h-38" id="aL"/><path fill="#1d262b" d="M179-190L93 31C79 59 56 82 12 73V49c39 6 53-20 64-50L1-190h34L92-34l54-156h33" id="aM"/><path fill="#1d262b" d="M206 0h-36l-40-164L89 0H53L-1-190h32L70-26l43-164h34l41 164 42-164h31" id="aN"/><g id="I"><use transform="matrix(0.08086419753086417,0,0,0.08086419753086417,0,0)" xlink:href="#aL"/><use transform="matrix(0.08086419753086417,0,0,0.08086419753086417,14.55555555555555,0)" xlink:href="#ag"/><use transform="matrix(0.08086419753086417,0,0,0.08086419753086417,30.728395061728385,0)" xlink:href="#aM"/><use transform="matrix(0.08086419753086417,0,0,0.08086419753086417,45.283950617283935,0)" xlink:href="#aN"/><use transform="matrix(0.08086419753086417,0,0,0.08086419753086417,66.22777777777776,0)" xlink:href="#ac"/><use transform="matrix(0.08086419753086417,0,0,0.08086419753086417,82.4006172839506,0)" xlink:href="#ab"/><use transform="matrix(0.08086419753086417,0,0,0.08086419753086417,92.02345679012343,0)" xlink:href="#au"/><use transform="matrix(0.08086419753086417,0,0,0.08086419753086417,108.19629629629625,0)" xlink:href="#aw"/></g></defs></g></svg>